<svg width="19" height="22" viewBox="0 0 19 22" fill="none" xmlns="http://www.w3.org/2000/svg">
<path d="M0.640587 5.2555L8.64059 8.5885C8.76241 8.63999 8.89333 8.66652 9.02559 8.66652C9.15785 8.66652 9.28876 8.63999 9.41059 8.5885L17.4106 5.2555C17.5925 5.1794 17.7478 5.05122 17.8571 4.88708C17.9663 4.72294 18.0246 4.53017 18.0246 4.333C18.0246 4.13583 17.9663 3.94306 17.8571 3.77893C17.7478 3.61479 17.5925 3.48661 17.4106 3.4105L9.41059 0.0765034C9.16405 -0.0255011 8.88712 -0.0255011 8.64059 0.0765034L0.640587 3.4105C0.458698 3.48661 0.303366 3.61479 0.194119 3.77893C0.0848716 3.94306 0.0265844 4.13583 0.0265844 4.333C0.0265844 4.53017 0.0848716 4.72294 0.194119 4.88708C0.303366 5.05122 0.458698 5.1794 0.640587 5.2555ZM9.02559 2.0825L14.4256 4.3325L9.02559 6.5825L3.62559 4.3325L9.02559 2.0825ZM17.4106 9.6995L9.41059 13.0325C9.28861 13.0834 9.15775 13.1096 9.02559 13.1096C8.89342 13.1096 8.76257 13.0834 8.64059 13.0325L0.640587 9.6995C0.519377 9.64894 0.409312 9.57501 0.316677 9.48191C0.224041 9.38881 0.15065 9.27839 0.100692 9.15693C0.0507337 9.03547 0.0251882 8.90536 0.0255134 8.77403C0.0258387 8.64269 0.0520283 8.51271 0.102587 8.3915C0.153146 8.27029 0.227084 8.16023 0.32018 8.06759C0.413275 7.97496 0.523705 7.90157 0.645164 7.85161C0.766623 7.80165 0.896732 7.7761 1.02806 7.77643C1.1594 7.77675 1.28938 7.80294 1.41059 7.8535L9.02559 11.0275L16.6406 7.8545C16.8854 7.75239 17.1607 7.75171 17.406 7.85261C17.6513 7.9535 17.8465 8.14771 17.9486 8.3925C18.0507 8.6373 18.0514 8.91263 17.9505 9.15793C17.8496 9.40322 17.6554 9.5984 17.4106 9.7005V9.6995ZM17.4106 14.1435L9.41059 17.4775C9.28861 17.5284 9.15775 17.5546 9.02559 17.5546C8.89342 17.5546 8.76257 17.5284 8.64059 17.4775L0.640587 14.1435C0.519377 14.0929 0.409312 14.019 0.316677 13.9259C0.224041 13.8328 0.15065 13.7224 0.100692 13.6009C0.0507337 13.4795 0.0251882 13.3494 0.0255134 13.218C0.0258387 13.0867 0.0520283 12.9567 0.102587 12.8355C0.153146 12.7143 0.227084 12.6042 0.32018 12.5116C0.413275 12.419 0.523705 12.3456 0.645164 12.2956C0.766623 12.2456 0.896732 12.2201 1.02806 12.2204C1.1594 12.2208 1.28938 12.2469 1.41059 12.2975L9.02559 15.4715L16.6406 12.2995C16.8854 12.1974 17.1607 12.1967 17.406 12.2976C17.6513 12.3985 17.8465 12.5927 17.9486 12.8375C18.0507 13.0823 18.0514 13.3576 17.9505 13.6029C17.8496 13.8482 17.6554 14.0434 17.4106 14.1455V14.1435ZM17.9486 17.2805C18.0504 17.5252 18.0509 17.8003 17.9501 18.0453C17.8492 18.2904 17.6551 18.4854 17.4106 18.5875L9.41059 21.9215C9.28861 21.9724 9.15775 21.9986 9.02559 21.9986C8.89342 21.9986 8.76257 21.9724 8.64059 21.9215L0.640587 18.5875C0.515863 18.5395 0.402034 18.4669 0.305827 18.3741C0.209621 18.2814 0.13299 18.1702 0.0804627 18.0473C0.0279357 17.9244 0.000578899 17.7922 9.08868e-06 17.6586C-0.000560722 17.5249 0.025668 17.3925 0.0771451 17.2692C0.128622 17.1458 0.204303 17.0341 0.299715 16.9405C0.395127 16.8469 0.508333 16.7733 0.632644 16.7242C0.756954 16.6751 0.889846 16.6515 1.02346 16.6546C1.15708 16.6577 1.28872 16.6876 1.41059 16.7425L9.02559 19.9165L16.6406 16.7435C16.7618 16.6929 16.8918 16.6667 17.0231 16.6664C17.1544 16.6661 17.2846 16.6916 17.406 16.7416C17.5275 16.7915 17.6379 16.8649 17.731 16.9576C17.8241 17.0502 17.898 17.1603 17.9486 17.2815V17.2805Z" fill="#141414"/>
</svg>
