<svg width="26" height="26" viewBox="0 0 26 26" fill="none" xmlns="http://www.w3.org/2000/svg">
<path d="M5.00128 9.4749C5.02484 10.2601 5.16654 11.0373 5.42162 11.7802C6.10273 13.5866 7.39477 15.0975 9.07353 16.0507L10.0312 16.6271C10.8022 17.0868 11.6832 17.3296 12.5808 17.3296C13.4785 17.3296 14.3595 17.0868 15.1305 16.6271L15.9971 16.106C17.1134 15.4754 18.0679 14.594 18.7853 13.5314C19.5027 12.4688 19.9634 11.2541 20.1311 9.98299C20.1557 9.73887 20.168 9.4926 20.168 9.24415C20.1595 8.26596 19.9432 7.30075 19.5334 6.41248C19.1236 5.52422 18.5297 4.73319 17.7911 4.09182C16.3621 2.85019 14.5329 2.16621 12.6399 2.16565C12.2707 2.15819 11.9014 2.17701 11.5349 2.22199C9.72887 2.37642 8.04912 3.21162 6.83595 4.55835C5.62278 5.90509 4.96693 7.66264 5.00128 9.4749ZM16.3546 5.71682C16.8665 6.15183 17.2786 6.69212 17.5628 7.30083C17.847 7.90955 17.9965 8.57239 18.0013 9.24415C18.0013 9.4229 17.9926 9.60165 17.9764 9.77824C17.8711 10.5621 17.6084 11.3166 17.204 11.9963C16.7997 12.676 16.262 13.2669 15.6234 13.7335C16.2795 12.3942 16.5979 10.9146 16.5507 9.42399C16.4729 7.86061 16.0243 6.33816 15.242 4.98232C15.6429 5.18017 16.0177 5.42688 16.3579 5.71682H16.3546ZM12.5846 4.87399C13.6456 6.19886 14.2751 7.81707 14.3884 9.51065C14.4058 11.3575 13.7665 13.1505 12.5846 14.5698C11.4362 13.2156 10.8058 11.4976 10.8058 9.7219C10.8058 7.94625 11.4362 6.22825 12.5846 4.87399ZM9.95862 4.93032C9.15864 6.29934 8.69907 7.84042 8.61853 9.42399C8.57257 10.9165 8.89282 12.3976 9.55128 13.7378C8.61128 13.0769 7.88942 12.1511 7.47778 11.0782C7.29158 10.5408 7.18714 9.97839 7.16795 9.4099C7.14548 8.47241 7.3973 7.54876 7.89248 6.75239C8.38766 5.95603 9.10464 5.32161 9.95537 4.92707L9.95862 4.93032ZM9.33462 19.499H15.8346V22.749C15.8346 23.0363 15.7205 23.3119 15.5173 23.515C15.3142 23.7182 15.0386 23.8323 14.7513 23.8323H10.418C10.1306 23.8323 9.85508 23.7182 9.65192 23.515C9.44875 23.3119 9.33462 23.0363 9.33462 22.749V19.499Z" fill="#4F4E4E"/>
</svg>
