<svg width="16" height="22" viewBox="0 0 16 22" fill="none" xmlns="http://www.w3.org/2000/svg">
<path d="M0.00128452 7.31084C0.0248361 8.09603 0.166537 8.8732 0.421618 9.61617C1.10273 11.4225 2.39477 12.9334 4.07353 13.8867L5.0312 14.463C5.80219 14.9228 6.68316 15.1655 7.58083 15.1655C8.4785 15.1655 9.35946 14.9228 10.1305 14.463L10.9971 13.9419C12.1134 13.3113 13.0679 12.4299 13.7853 11.3673C14.5027 10.3048 14.9634 9.09001 15.1311 7.81892C15.1557 7.57481 15.168 7.32854 15.168 7.08009C15.1595 6.1019 14.9432 5.13669 14.5334 4.24842C14.1236 3.36016 13.5297 2.56912 12.7911 1.92776C11.3621 0.686131 9.53292 0.00214893 7.63987 0.0015902C7.27066 -0.00587497 6.9014 0.0129504 6.53487 0.0579236C4.72887 0.212358 3.04912 1.04756 1.83595 2.39429C0.622781 3.74103 -0.0330697 5.49858 0.00128452 7.31084ZM11.3546 3.55276C11.8665 3.98777 12.2786 4.52805 12.5628 5.13677C12.847 5.74549 12.9965 6.40833 13.0013 7.08009C13.0013 7.25884 12.9926 7.43759 12.9764 7.61417C12.8711 8.39804 12.6084 9.15251 12.204 9.83223C11.7997 10.5119 11.262 11.1029 10.6234 11.5694C11.2795 10.2301 11.5979 8.75057 11.5507 7.25992C11.4729 5.69654 11.0243 4.1741 10.242 2.81826C10.6429 3.01611 11.0177 3.26282 11.3579 3.55276H11.3546ZM7.58462 2.70992C8.64563 4.0348 9.27514 5.65301 9.38837 7.34659C9.40577 9.19347 8.76651 10.9865 7.58462 12.4058C6.43618 11.0515 5.80581 9.3335 5.80581 7.55784C5.80581 5.78218 6.43618 4.06419 7.58462 2.70992ZM4.95862 2.76626C4.15864 4.13527 3.69907 5.67636 3.61853 7.25992C3.57257 8.75246 3.89282 10.2335 4.55128 11.5738C3.61128 10.9129 2.88942 9.98699 2.47778 8.91417C2.29158 8.37671 2.18714 7.81432 2.16795 7.24584C2.14548 6.30835 2.3973 5.3847 2.89248 4.58833C3.38766 3.79196 4.10464 3.15755 4.95537 2.76301L4.95862 2.76626ZM4.33462 17.3349H10.8346V20.5849C10.8346 20.8722 10.7205 21.1478 10.5173 21.351C10.3142 21.5541 10.0386 21.6683 9.75128 21.6683H5.41795C5.13063 21.6683 4.85508 21.5541 4.65192 21.351C4.44875 21.1478 4.33462 20.8722 4.33462 20.5849V17.3349Z" fill="#141414"/>
</svg>
