<svg width="20" height="20" viewBox="0 0 20 20" fill="none" xmlns="http://www.w3.org/2000/svg">
<path d="M10.0002 0.833008C8.18717 0.833008 6.41489 1.37062 4.90744 2.37787C3.39999 3.38512 2.22507 4.81675 1.53127 6.49174C0.837468 8.16673 0.655937 10.0098 1.00964 11.788C1.36333 13.5662 2.23637 15.1995 3.51835 16.4815C4.80034 17.7635 6.43368 18.6365 8.21184 18.9902C9.99 19.3439 11.8331 19.1624 13.5081 18.4686C15.1831 17.7748 16.6147 16.5999 17.622 15.0924C18.6292 13.585 19.1668 11.8127 19.1668 9.99967C19.164 7.5694 18.1973 5.23949 16.4788 3.52103C14.7604 1.80257 12.4304 0.835875 10.0002 0.833008ZM10.0002 17.4997C8.51681 17.4997 7.06676 17.0598 5.83339 16.2357C4.60002 15.4116 3.63873 14.2402 3.07107 12.8698C2.50341 11.4994 2.35489 9.99135 2.64428 8.5365C2.93367 7.08164 3.64797 5.74527 4.69687 4.69637C5.74576 3.64748 7.08213 2.93317 8.53699 2.64378C9.99185 2.3544 11.4998 2.50292 12.8703 3.07058C14.2407 3.63824 15.4121 4.59953 16.2362 5.8329C17.0603 7.06627 17.5002 8.51631 17.5002 9.99967C17.498 11.9881 16.7071 13.8945 15.301 15.3005C13.895 16.7066 11.9886 17.4975 10.0002 17.4997ZM10.0002 6.66634C9.3409 6.66634 8.69643 6.86184 8.14827 7.22811C7.6001 7.59438 7.17286 8.11498 6.92057 8.72406C6.66828 9.33315 6.60226 10.0034 6.73088 10.65C6.8595 11.2966 7.17697 11.8905 7.64314 12.3567C8.10932 12.8229 8.70326 13.1403 9.34987 13.269C9.99647 13.3976 10.6667 13.3316 11.2758 13.0793C11.8849 12.827 12.4055 12.3997 12.7717 11.8516C13.138 11.3034 13.3335 10.6589 13.3335 9.99967C13.3335 9.11562 12.9823 8.26777 12.3572 7.64265C11.7321 7.01753 10.8842 6.66634 10.0002 6.66634ZM10.0002 11.6663C9.67053 11.6663 9.3483 11.5686 9.07422 11.3855C8.80013 11.2023 8.58651 10.942 8.46037 10.6375C8.33422 10.3329 8.30122 9.99783 8.36552 9.67452C8.42983 9.35122 8.58857 9.05425 8.82166 8.82116C9.05474 8.58808 9.35171 8.42934 9.67502 8.36503C9.99832 8.30072 10.3334 8.33373 10.638 8.45988C10.9425 8.58602 11.2028 8.79964 11.3859 9.07372C11.5691 9.34781 11.6668 9.67004 11.6668 9.99967C11.6668 10.4417 11.4912 10.8656 11.1787 11.1782C10.8661 11.4907 10.4422 11.6663 10.0002 11.6663Z" fill="#4F4E4E"/>
</svg>
