<svg width="47" height="46" viewBox="0 0 47 46" fill="none" xmlns="http://www.w3.org/2000/svg">
<mask id="path-1-inside-1_589_349" fill="white">
<ellipse cx="23.5012" cy="23" rx="23.0002" ry="23"/>
</mask>
<path d="M15.5015 23C15.5015 18.5814 19.0834 15 23.5012 15V77C53.3244 77 77.5015 52.8237 77.5015 23H15.5015ZM23.5012 15C27.9191 15 31.501 18.5814 31.501 23H-30.499C-30.499 52.8237 -6.32198 77 23.5012 77V15ZM31.501 23C31.501 27.4186 27.9191 31 23.5012 31V-31C-6.32198 -31 -30.499 -6.82369 -30.499 23H31.501ZM23.5012 31C19.0834 31 15.5015 27.4186 15.5015 23H77.5015C77.5015 -6.82369 53.3244 -31 23.5012 -31V31Z" fill="#AE0000" mask="url(#path-1-inside-1_589_349)"/>
</svg>
