<svg width="19" height="19" viewBox="0 0 19 19" fill="none" xmlns="http://www.w3.org/2000/svg">
<path d="M9.5 0C7.62108 0 5.78435 0.557165 4.22209 1.60104C2.65982 2.64491 1.44218 4.12861 0.723149 5.86451C0.00411623 7.6004 -0.184015 9.51054 0.182544 11.3534C0.549104 13.1962 1.45389 14.8889 2.78249 16.2175C4.11109 17.5461 5.80383 18.4509 7.64664 18.8175C9.48946 19.184 11.3996 18.9959 13.1355 18.2768C14.8714 17.5578 16.3551 16.3402 17.399 14.7779C18.4428 13.2156 19 11.3789 19 9.5C18.997 6.98135 17.9952 4.56672 16.2142 2.78577C14.4333 1.00482 12.0186 0.00297132 9.5 0ZM9.5 17.2727C7.9627 17.2727 6.45992 16.8169 5.18171 15.9628C3.90349 15.1087 2.90724 13.8948 2.31894 12.4745C1.73064 11.0542 1.57671 9.49137 1.87663 7.98361C2.17654 6.47585 2.91682 5.09089 4.00385 4.00385C5.09089 2.91682 6.47586 2.17654 7.98362 1.87662C9.49138 1.57671 11.0542 1.73064 12.4745 2.31894C13.8948 2.90723 15.1087 3.90348 15.9628 5.1817C16.8169 6.45992 17.2727 7.9627 17.2727 9.5C17.2704 11.5608 16.4508 13.5364 14.9936 14.9936C13.5365 16.4508 11.5608 17.2704 9.5 17.2727ZM13.8182 9.5C13.8182 9.72905 13.7272 9.94872 13.5652 10.1107C13.4033 10.2726 13.1836 10.3636 12.9545 10.3636H10.3636V12.9545C10.3636 13.1836 10.2726 13.4033 10.1107 13.5652C9.94872 13.7272 9.72905 13.8182 9.5 13.8182C9.27095 13.8182 9.05128 13.7272 8.88932 13.5652C8.72736 13.4033 8.63637 13.1836 8.63637 12.9545V10.3636H6.04546C5.81641 10.3636 5.59674 10.2726 5.43477 10.1107C5.27281 9.94872 5.18182 9.72905 5.18182 9.5C5.18182 9.27095 5.27281 9.05128 5.43477 8.88931C5.59674 8.72735 5.81641 8.63636 6.04546 8.63636H8.63637V6.04545C8.63637 5.8164 8.72736 5.59673 8.88932 5.43477C9.05128 5.27281 9.27095 5.18182 9.5 5.18182C9.72905 5.18182 9.94872 5.27281 10.1107 5.43477C10.2726 5.59673 10.3636 5.8164 10.3636 6.04545V8.63636H12.9545C13.1836 8.63636 13.4033 8.72735 13.5652 8.88931C13.7272 9.05128 13.8182 9.27095 13.8182 9.5Z" fill="#4F4E4E"/>
</svg>
