<svg width="18" height="18" viewBox="0 0 18 18" fill="none" xmlns="http://www.w3.org/2000/svg">
<path d="M16.818 2.32079C16.6888 2.26028 16.545 2.23789 16.4036 2.25622C16.2621 2.27455 16.1288 2.33285 16.0192 2.42429L12.108 5.68454L9.58575 2.53454C9.51282 2.45085 9.4228 2.38377 9.32176 2.3378C9.22072 2.29184 9.111 2.26805 9 2.26805C8.889 2.26805 8.77928 2.29184 8.67824 2.3378C8.5772 2.38377 8.48718 2.45085 8.41425 2.53454L5.892 5.68454L1.98 2.42429C1.8705 2.33308 1.73728 2.27496 1.59594 2.25673C1.4546 2.2385 1.31099 2.26092 1.18193 2.32135C1.05287 2.38179 0.943699 2.47775 0.867204 2.59799C0.790708 2.71823 0.750053 2.85778 0.75 3.00029V13.5003C0.75 14.097 0.987053 14.6693 1.40901 15.0913C1.83097 15.5132 2.40326 15.7503 3 15.7503H15C15.5967 15.7503 16.169 15.5132 16.591 15.0913C17.0129 14.6693 17.25 14.097 17.25 13.5003V3.00029C17.25 2.85767 17.2094 2.718 17.1329 2.59765C17.0564 2.4773 16.9472 2.38126 16.818 2.32079ZM15.75 13.5003C15.75 13.6992 15.671 13.89 15.5303 14.0306C15.3897 14.1713 15.1989 14.2503 15 14.2503H3C2.80109 14.2503 2.61032 14.1713 2.46967 14.0306C2.32902 13.89 2.25 13.6992 2.25 13.5003V12.7503H15.75V13.5003ZM15.75 11.2503H2.25V4.60154L5.52 7.32629C5.59661 7.39016 5.68519 7.43812 5.78055 7.46734C5.87592 7.49657 5.97616 7.50648 6.0754 7.49649C6.17464 7.4865 6.2709 7.45682 6.35853 7.40918C6.44616 7.36154 6.52341 7.2969 6.58575 7.21904L9 4.20029L11.4142 7.21829C11.4766 7.29626 11.5539 7.36099 11.6416 7.4087C11.7293 7.45641 11.8256 7.48613 11.925 7.49612C12.0243 7.50611 12.1246 7.49617 12.2201 7.46687C12.3155 7.43758 12.4041 7.38953 12.4808 7.32554L15.75 4.60154V11.2503ZM11.25 9.00029C11.25 9.1992 11.171 9.38996 11.0303 9.53062C10.8897 9.67127 10.6989 9.75029 10.5 9.75029H7.5C7.30109 9.75029 7.11032 9.67127 6.96967 9.53062C6.82902 9.38996 6.75 9.1992 6.75 9.00029C6.75 8.80137 6.82902 8.61061 6.96967 8.46996C7.11032 8.3293 7.30109 8.25029 7.5 8.25029H10.5C10.6989 8.25029 10.8897 8.3293 11.0303 8.46996C11.171 8.61061 11.25 8.80137 11.25 9.00029Z" fill="#4F4E4E"/>
</svg>
