<svg width="17" height="17" viewBox="0 0 17 17" fill="none" xmlns="http://www.w3.org/2000/svg">
<path d="M13.6945 0.248871L6.27647 7.66775C6.18286 7.76044 6.11264 7.87407 6.07161 7.99925L5.14426 10.7813C5.10172 10.909 5.09012 11.045 5.11042 11.1781C5.13072 11.3112 5.18233 11.4375 5.26102 11.5468C5.3397 11.656 5.4432 11.745 5.56299 11.8064C5.68279 11.8678 5.81545 11.8998 5.95006 11.8999C6.04141 11.8999 6.13214 11.885 6.21867 11.8557L9.00075 10.9284C9.12593 10.8874 9.23956 10.8171 9.33225 10.7235L16.7511 3.3055C16.9105 3.1461 17 2.92994 17 2.70455C17 2.47916 16.9105 2.26299 16.7511 2.10359L14.8964 0.248871C14.737 0.089519 14.5208 0 14.2955 0C14.0701 0 13.8539 0.089519 13.6945 0.248871ZM8.27229 9.37967L7.29393 9.70607L7.62033 8.72771L12.4416 3.90986L13.0935 4.56182L8.27229 9.37967ZM14.9483 2.70455L14.2955 3.3565L13.6435 2.70455L14.2955 2.05174L14.9483 2.70455ZM0.850009 2.54985H7.65008C7.87552 2.54985 8.09172 2.6394 8.25113 2.79881C8.41054 2.95822 8.50009 3.17442 8.50009 3.39985C8.50009 3.62529 8.41054 3.84149 8.25113 4.0009C8.09172 4.16031 7.87552 4.24986 7.65008 4.24986H1.70002V15.3H12.7501V9.34992C12.7501 9.12448 12.8397 8.90828 12.9991 8.74887C13.1585 8.58946 13.3747 8.49991 13.6001 8.49991C13.8256 8.49991 14.0418 8.58946 14.2012 8.74887C14.3606 8.90828 14.4502 9.12448 14.4502 9.34992V16.15C14.4502 16.3754 14.3606 16.5916 14.2012 16.751C14.0418 16.9104 13.8256 17 13.6001 17H0.850009C0.624573 17 0.408369 16.9104 0.248962 16.751C0.0895542 16.5916 0 16.3754 0 16.15V3.39985C0 3.17442 0.0895542 2.95822 0.248962 2.79881C0.408369 2.6394 0.624573 2.54985 0.850009 2.54985Z" fill="#4F4E4E"/>
</svg>
