<svg width="20" height="20" viewBox="0 0 20 20" fill="none" xmlns="http://www.w3.org/2000/svg">
<g clip-path="url(#clip0_90_344)">
<path d="M10.2983 1.58447C8.57488 1.58447 6.89012 2.09554 5.45711 3.05305C4.0241 4.01055 2.90721 5.37149 2.24767 6.96376C1.58813 8.55604 1.41556 10.3081 1.75179 11.9985C2.08802 13.6888 2.91795 15.2415 4.13662 16.4602C5.3553 17.6789 6.90798 18.5088 8.59833 18.845C10.2887 19.1813 12.0408 19.0087 13.633 18.3491C15.2253 17.6896 16.5863 16.5727 17.5438 15.1397C18.5013 13.7067 19.0123 12.0219 19.0123 10.2985C19.0096 7.98821 18.0907 5.77335 16.4571 4.13975C14.8235 2.50615 12.6086 1.5872 10.2983 1.58447ZM3.21546 11.0906H5.56665C5.61269 13.0167 6.10226 14.9061 6.99733 16.6121C5.96385 16.0708 5.07876 15.2844 4.41948 14.3219C3.7602 13.3593 3.3468 12.2499 3.21546 11.0906ZM5.56665 9.50628H3.21546C3.3468 8.34702 3.7602 7.23759 4.41948 6.27504C5.07876 5.3125 5.96385 4.52615 6.99733 3.98478C6.10226 5.69081 5.61269 7.58027 5.56665 9.50628ZM9.50617 17.1635C8.36305 16.422 7.30786 14.158 7.15022 11.0906H9.50617V17.1635ZM9.50617 9.50628H7.15022C7.30786 6.43896 8.36305 4.17491 9.50617 3.43342V9.50628ZM11.0905 17.1635V11.0906H13.4465C13.2888 14.158 12.2336 16.422 11.0905 17.1635ZM11.0905 9.50628V3.43342C12.2336 4.17491 13.2888 6.43896 13.4465 9.50628H11.0905ZM13.5994 16.6121C14.4944 14.9061 14.984 13.0167 15.03 11.0906H17.3812C17.2499 12.2499 16.8365 13.3593 16.1772 14.3219C15.5179 15.2844 14.6328 16.0708 13.5994 16.6121ZM15.03 9.50628C14.984 7.58027 14.4944 5.69081 13.5994 3.98478C14.6328 4.52615 15.5179 5.3125 16.1772 6.27504C16.8365 7.23759 17.2499 8.34702 17.3812 9.50628H15.03Z" fill="black"/>
</g>
<defs>
<clipPath id="clip0_90_344">
<rect width="19.0123" height="19.0123" fill="white"/>
</clipPath>
</defs>
</svg>
