<svg width="17" height="17" viewBox="0 0 17 17" fill="none" xmlns="http://www.w3.org/2000/svg">
<path d="M16.4168 1.37467C16.4168 1.58464 16.3334 1.786 16.185 1.93447C16.0365 2.08293 15.8351 2.16634 15.6252 2.16634H1.37516C1.1652 2.16634 0.963836 2.08293 0.81537 1.93447C0.666904 1.786 0.583496 1.58464 0.583496 1.37467C0.583496 1.16471 0.666904 0.963348 0.81537 0.814882C0.963836 0.666415 1.1652 0.583008 1.37516 0.583008H15.6252C15.8351 0.583008 16.0365 0.666415 16.185 0.814882C16.3334 0.963348 16.4168 1.16471 16.4168 1.37467ZM1.37516 6.91634H5.3335C5.54346 6.91634 5.74482 6.83293 5.89329 6.68447C6.04175 6.536 6.12516 6.33464 6.12516 6.12467C6.12516 5.91471 6.04175 5.71335 5.89329 5.56488C5.74482 5.41642 5.54346 5.33301 5.3335 5.33301H1.37516C1.1652 5.33301 0.963836 5.41642 0.81537 5.56488C0.666904 5.71335 0.583496 5.91471 0.583496 6.12467C0.583496 6.33464 0.666904 6.536 0.81537 6.68447C0.963836 6.83293 1.1652 6.91634 1.37516 6.91634ZM1.37516 11.6663H5.3335C5.54346 11.6663 5.74482 11.5829 5.89329 11.4345C6.04175 11.286 6.12516 11.0846 6.12516 10.8747C6.12516 10.6647 6.04175 10.4633 5.89329 10.3149C5.74482 10.1664 5.54346 10.083 5.3335 10.083H1.37516C1.1652 10.083 0.963836 10.1664 0.81537 10.3149C0.666904 10.4633 0.583496 10.6647 0.583496 10.8747C0.583496 11.0846 0.666904 11.286 0.81537 11.4345C0.963836 11.5829 1.1652 11.6663 1.37516 11.6663ZM1.37516 16.4163H15.6252C15.8351 16.4163 16.0365 16.3329 16.185 16.1845C16.3334 16.036 16.4168 15.8346 16.4168 15.6247C16.4168 15.4147 16.3334 15.2133 16.185 15.0649C16.0365 14.9164 15.8351 14.833 15.6252 14.833H1.37516C1.1652 14.833 0.963836 14.9164 0.81537 15.0649C0.666904 15.2133 0.583496 15.4147 0.583496 15.6247C0.583496 15.8346 0.666904 16.036 0.81537 16.1845C0.963836 16.3329 1.1652 16.4163 1.37516 16.4163ZM15.6252 7.70801H9.61958L10.6432 6.68438C10.7874 6.53507 10.8672 6.3351 10.8654 6.12752C10.8636 5.91995 10.7803 5.72139 10.6336 5.57461C10.4868 5.42783 10.2882 5.34457 10.0806 5.34277C9.87307 5.34096 9.6731 5.42076 9.52379 5.56497L7.14879 7.93997C7.00037 8.08843 6.917 8.28975 6.917 8.49967C6.917 8.7096 7.00037 8.91092 7.14879 9.05938L9.52379 11.4344C9.6731 11.5786 9.87307 11.6584 10.0806 11.6566C10.2882 11.6548 10.4868 11.5715 10.6336 11.4247C10.7803 11.278 10.8636 11.0794 10.8654 10.8718C10.8672 10.6643 10.7874 10.4643 10.6432 10.315L9.61958 9.29134H15.6252C15.8351 9.29134 16.0365 9.20793 16.185 9.05947C16.3334 8.911 16.4168 8.70964 16.4168 8.49967C16.4168 8.28971 16.3334 8.08835 16.185 7.93988C16.0365 7.79142 15.8351 7.70801 15.6252 7.70801Z" fill="black"/>
</svg>
