<svg width="20" height="20" viewBox="0 0 20 20" fill="none" xmlns="http://www.w3.org/2000/svg">
<path d="M2.66666 3.33333C2.66666 3.11232 2.75445 2.90036 2.91073 2.74408C3.06701 2.5878 3.27898 2.5 3.49999 2.5H18.5C18.721 2.5 18.933 2.5878 19.0892 2.74408C19.2455 2.90036 19.3333 3.11232 19.3333 3.33333C19.3333 3.55435 19.2455 3.76631 19.0892 3.92259C18.933 4.07887 18.721 4.16667 18.5 4.16667H3.49999C3.27898 4.16667 3.06701 4.07887 2.91073 3.92259C2.75445 3.76631 2.66666 3.55435 2.66666 3.33333V3.33333ZM3.49999 10.8333H18.5C18.721 10.8333 18.933 10.7455 19.0892 10.5893C19.2455 10.433 19.3333 10.221 19.3333 10C19.3333 9.77899 19.2455 9.56702 19.0892 9.41074C18.933 9.25446 18.721 9.16667 18.5 9.16667H3.49999C3.27898 9.16667 3.06701 9.25446 2.91073 9.41074C2.75445 9.56702 2.66666 9.77899 2.66666 10C2.66666 10.221 2.75445 10.433 2.91073 10.5893C3.06701 10.7455 3.27898 10.8333 3.49999 10.8333V10.8333ZM3.49999 17.5H18.5C18.721 17.5 18.933 17.4122 19.0892 17.2559C19.2455 17.0996 19.3333 16.8877 19.3333 16.6667C19.3333 16.4457 19.2455 16.2337 19.0892 16.0774C18.933 15.9211 18.721 15.8333 18.5 15.8333H3.49999C3.27898 15.8333 3.06701 15.9211 2.91073 16.0774C2.75445 16.2337 2.66666 16.4457 2.66666 16.6667C2.66666 16.8877 2.75445 17.0996 2.91073 17.2559C3.06701 17.4122 3.27898 17.5 3.49999 17.5V17.5Z" fill="black"/>
</svg>
