<svg width="18" height="16" viewBox="0 0 18 16" fill="none" xmlns="http://www.w3.org/2000/svg">
<path fill-rule="evenodd" clip-rule="evenodd" d="M15.6324 3.52336C14.6815 1.82375 12.4086 1.51288 11.0535 2.89707L9.70155 4.2779C9.51547 4.46797 9.26308 4.57475 8.99991 4.57475C8.73674 4.57475 8.48436 4.46797 8.29827 4.2779L6.94641 2.89712C5.59123 1.51293 3.3184 1.82384 2.36757 3.52347C1.73174 4.66001 1.89976 6.08778 2.78114 7.03806L8.99992 13.7429L15.2188 7.03816C16.1003 6.08783 16.2683 4.65996 15.6324 3.52336ZM9.65017 1.46375C11.9306 -0.865521 15.7553 -0.342397 17.3554 2.51765C18.4255 4.43028 18.1428 6.83306 16.6595 8.43224L10.0804 15.5253C9.49335 16.1582 8.50646 16.1582 7.91939 15.5253L1.34045 8.43211C-0.14274 6.83299 -0.425468 4.43037 0.644484 2.51781C2.24453 -0.342294 6.06922 -0.865483 8.3497 1.4638L8.99991 2.12793L9.65017 1.46375Z" fill="#141414"/>
<path fill-rule="evenodd" clip-rule="evenodd" d="M15.6324 3.52336C14.6815 1.82375 12.4086 1.51288 11.0535 2.89707L9.70155 4.2779C9.51547 4.46797 9.26308 4.57475 8.99991 4.57475C8.73674 4.57475 8.48436 4.46797 8.29827 4.2779L6.94641 2.89712C5.59123 1.51293 3.3184 1.82384 2.36757 3.52347C1.73174 4.66001 1.89976 6.08778 2.78114 7.03806L8.99992 13.7429L15.2188 7.03816C16.1003 6.08783 16.2683 4.65996 15.6324 3.52336ZM9.65017 1.46375C11.9306 -0.865521 15.7553 -0.342397 17.3554 2.51765C18.4255 4.43028 18.1428 6.83306 16.6595 8.43224L10.0804 15.5253C9.49335 16.1582 8.50646 16.1582 7.91939 15.5253L1.34045 8.43211C-0.14274 6.83299 -0.425468 4.43037 0.644484 2.51781C2.24453 -0.342294 6.06922 -0.865483 8.3497 1.4638L8.99991 2.12793L9.65017 1.46375Z" fill="#141414"/>
<path fill-rule="evenodd" clip-rule="evenodd" d="M15.6324 3.52336C14.6815 1.82375 12.4086 1.51288 11.0535 2.89707L9.70155 4.2779C9.51547 4.46797 9.26308 4.57475 8.99991 4.57475C8.73674 4.57475 8.48436 4.46797 8.29827 4.2779L6.94641 2.89712C5.59123 1.51293 3.3184 1.82384 2.36757 3.52347C1.73174 4.66001 1.89976 6.08778 2.78114 7.03806L8.99992 13.7429L15.2188 7.03816C16.1003 6.08783 16.2683 4.65996 15.6324 3.52336ZM9.65017 1.46375C11.9306 -0.865521 15.7553 -0.342397 17.3554 2.51765C18.4255 4.43028 18.1428 6.83306 16.6595 8.43224L10.0804 15.5253C9.49335 16.1582 8.50646 16.1582 7.91939 15.5253L1.34045 8.43211C-0.14274 6.83299 -0.425468 4.43037 0.644484 2.51781C2.24453 -0.342294 6.06922 -0.865483 8.3497 1.4638L8.99991 2.12793L9.65017 1.46375Z" fill="#141414"/>
</svg>
