<svg width="135" height="155" viewBox="0 0 135 155" fill="none" xmlns="http://www.w3.org/2000/svg">
<path d="M72.973 103.333C72.973 111.526 66.4784 118.095 58.3784 118.095C50.2784 118.095 43.7838 111.526 43.7838 103.333C43.7838 95.1405 50.3514 88.5714 58.3784 88.5714C66.4054 88.5714 72.973 95.2143 72.973 103.333ZM14.5946 140.238V66.4286H102.162V89.2357C104.57 88.8667 106.978 88.5714 109.459 88.5714C111.941 88.5714 114.349 88.8667 116.757 89.2357V66.4286C116.757 58.3095 110.262 51.6667 102.162 51.6667H94.8649V36.9048C94.8649 16.5333 78.5189 0 58.3784 0C38.2378 0 21.8919 16.5333 21.8919 36.9048H36.4865C36.4865 24.6524 46.2649 14.7619 58.3784 14.7619C70.4919 14.7619 80.2703 24.6524 80.2703 36.9048V51.6667H14.5946C6.49459 51.6667 0 58.3095 0 66.4286V140.238C0 148.357 6.49459 155 14.5946 155H71.5865C69.0324 150.498 67.2811 145.552 66.3324 140.238H14.5946ZM126.535 109.533L100.338 136.031L88.7351 124.295L80.2703 132.857L100.338 155L135 119.94L126.535 109.533Z" fill="#C1EAE9"/>
</svg>
