<svg width="22" height="21" viewBox="0 0 22 21" fill="none" xmlns="http://www.w3.org/2000/svg">
<path d="M1 10.5L3.22222 8.38889M3.22222 8.38889L11 1L18.7778 8.38889M3.22222 8.38889V18.9444C3.22222 19.2244 3.33929 19.4929 3.54766 19.6908C3.75603 19.8888 4.03865 20 4.33333 20H7.66667M18.7778 8.38889L21 10.5M18.7778 8.38889V18.9444C18.7778 19.2244 18.6607 19.4929 18.4523 19.6908C18.244 19.8888 17.9614 20 17.6667 20H14.3333M7.66667 20C7.96135 20 8.24397 19.8888 8.45234 19.6908C8.66071 19.4929 8.77778 19.2244 8.77778 18.9444V14.7222C8.77778 14.4423 8.89484 14.1738 9.10322 13.9758C9.31159 13.7779 9.5942 13.6667 9.88889 13.6667H12.1111C12.4058 13.6667 12.6884 13.7779 12.8968 13.9758C13.1052 14.1738 13.2222 14.4423 13.2222 14.7222V18.9444C13.2222 19.2244 13.3393 19.4929 13.5477 19.6908C13.756 19.8888 14.0386 20 14.3333 20M7.66667 20H14.3333" stroke="#4F4E4E" stroke-width="2" stroke-linecap="round" stroke-linejoin="round"/>
</svg>
