<svg width="139" height="110" viewBox="0 0 139 110" fill="none" xmlns="http://www.w3.org/2000/svg">
<path d="M62.55 34.375C62.55 45.7875 53.237 55 41.7 55C30.163 55 20.85 45.7875 20.85 34.375C20.85 22.9625 30.163 13.75 41.7 13.75C53.237 13.75 62.55 22.9625 62.55 34.375ZM83.4 110H0V96.25C0 81.0563 18.6955 68.75 41.7 68.75C64.7045 68.75 83.4 81.0563 83.4 96.25M34.75 34.375C34.75 38.1562 37.8775 41.25 41.7 41.25C45.5225 41.25 48.65 38.1562 48.65 34.375C48.65 30.5938 45.5225 27.5 41.7 27.5C37.8775 27.5 34.75 30.5938 34.75 34.375ZM13.9 96.25H69.5C69.5 88.6875 57.0595 82.5 41.7 82.5C26.3405 82.5 13.9 88.6875 13.9 96.25ZM139 55V68.75H76.45V55M139 27.5V41.25H76.45V27.5M139 0V13.75H76.45V0H139Z" fill="#D2F5E5"/>
</svg>
