<svg width="20" height="20" viewBox="0 0 20 20" fill="none" xmlns="http://www.w3.org/2000/svg">
<path d="M11.588 0C8.51565 0.00317671 5.57004 1.22509 3.39756 3.39762C1.22507 5.57014 0.00317666 8.5158 0 11.5882C0 11.8534 0.105357 12.1078 0.292893 12.2953C0.48043 12.4829 0.734784 12.5882 1 12.5882H3.241C3.42817 14.1552 4.0525 15.6379 5.0426 16.8668C6.0327 18.0956 7.34861 19.0211 8.83988 19.5373C10.3311 20.0536 11.9376 20.1398 13.4755 19.786C15.0135 19.4323 16.4208 18.6529 17.5367 17.537C18.6526 16.4211 19.4319 15.0137 19.7857 13.4758C20.1394 11.9378 20.0532 10.3313 19.537 8.84003C19.0208 7.34874 18.0953 6.0328 16.8665 5.04269C15.6376 4.05257 14.155 3.42823 12.588 3.24106V1.00002C12.588 0.734797 12.4826 0.480438 12.2951 0.292898C12.1076 0.105359 11.8532 0 11.588 0ZM2.052 10.5882C2.28329 8.40339 3.25694 6.36403 4.81043 4.81051C6.36392 3.257 8.40324 2.28333 10.588 2.05204V10.5882H2.052ZM18 11.5882C18.0008 13.2015 17.3931 14.7557 16.2982 15.9405C15.2033 17.1254 13.7018 17.8536 12.0935 17.9799C10.4852 18.1062 8.88847 17.6211 7.62211 16.6217C6.35574 15.6222 5.51294 14.1819 5.262 12.5882H11.588C11.8532 12.5882 12.1076 12.4829 12.2951 12.2953C12.4826 12.1078 12.588 11.8534 12.588 11.5882V5.26209C14.0948 5.50104 15.4673 6.26906 16.4591 7.42839C17.4509 8.58772 17.9972 10.0625 18 11.5882Z" fill="#141414"/>
</svg>
