<svg width="13" height="16" viewBox="0 0 13 16" fill="none" xmlns="http://www.w3.org/2000/svg">
<path d="M6.87674 6.86434C7.54822 6.86434 8.20462 6.66523 8.76293 6.29217C9.32125 5.91912 9.7564 5.38888 10.0134 4.76852C10.2703 4.14815 10.3376 3.46552 10.2066 2.80694C10.0756 2.14836 9.75222 1.54342 9.27741 1.06861C8.8026 0.593803 8.19766 0.270455 7.53908 0.139455C6.8805 0.00845624 6.19787 0.0756898 5.5775 0.332654C4.95714 0.589618 4.4269 1.02477 4.05385 1.58309C3.68079 2.1414 3.48167 2.7978 3.48167 3.46928C3.48275 4.36938 3.84079 5.2323 4.47726 5.86876C5.11372 6.50523 5.97664 6.86327 6.87674 6.86434ZM6.87674 1.43224C7.27962 1.43224 7.67347 1.55171 8.00845 1.77555C8.34344 1.99938 8.60454 2.31752 8.75871 2.68974C8.91289 3.06196 8.95323 3.47154 8.87463 3.86669C8.79603 4.26183 8.60202 4.6248 8.31714 4.90968C8.03226 5.19457 7.66929 5.38858 7.27414 5.46718C6.879 5.54578 6.46942 5.50544 6.0972 5.35126C5.72498 5.19708 5.40684 4.93599 5.183 4.601C4.95917 4.26601 4.8397 3.87217 4.8397 3.46928C4.8397 2.92903 5.05432 2.4109 5.43633 2.02888C5.81835 1.64686 6.33648 1.43224 6.87674 1.43224ZM0.765625 14.3335C0.765625 12.7127 1.40947 11.1583 2.55553 10.0123C3.70158 8.86621 5.25597 8.22237 6.87674 8.22237C8.4975 8.22237 10.0519 8.86621 11.1979 10.0123C12.344 11.1583 12.9878 12.7127 12.9878 14.3335C12.9878 14.5136 12.9163 14.6863 12.789 14.8136C12.6616 14.941 12.4889 15.0125 12.3088 15.0125C12.1288 15.0125 11.956 14.941 11.8287 14.8136C11.7014 14.6863 11.6298 14.5136 11.6298 14.3335C11.6298 13.0729 11.1291 11.8639 10.2377 10.9725C9.3463 10.0812 8.13733 9.58039 6.87674 9.58039C5.61614 9.58039 4.40717 10.0812 3.5158 10.9725C2.62442 11.8639 2.12365 13.0729 2.12365 14.3335C2.12365 14.5136 2.05211 14.6863 1.92477 14.8136C1.79743 14.941 1.62472 15.0125 1.44464 15.0125C1.26455 15.0125 1.09184 14.941 0.964503 14.8136C0.837164 14.6863 0.765625 14.5136 0.765625 14.3335Z" fill="black"/>
</svg>
