<svg width="21" height="21" viewBox="0 0 21 21" fill="none" xmlns="http://www.w3.org/2000/svg">
<path d="M3.07592 12.7315C4.25124 13.9085 5.81639 14.6151 7.47651 14.7181C9.13664 14.8211 10.7771 14.3135 12.089 13.2909L16.6027 17.8046C16.7628 17.9592 16.9772 18.0448 17.1997 18.0428C17.4223 18.0409 17.6351 17.9516 17.7925 17.7943C17.9499 17.6369 18.0391 17.424 18.0411 17.2015C18.043 16.9789 17.9575 16.7645 17.8029 16.6045L13.2891 12.0907C14.3571 10.7201 14.862 8.99371 14.7009 7.2636C14.5398 5.5335 13.7248 3.93001 12.4221 2.78016C11.1194 1.63031 9.42709 1.02071 7.69037 1.07568C5.95365 1.13066 4.30331 1.84606 3.07592 3.07599C2.44172 3.70987 1.93863 4.46249 1.59538 5.29085C1.25214 6.11922 1.07547 7.0071 1.07547 7.90377C1.07547 8.80043 1.25214 9.68831 1.59538 10.5167C1.93863 11.345 2.44172 12.0977 3.07592 12.7315ZM4.27608 4.27784C5.11514 3.43879 6.21917 2.91663 7.40006 2.80031C8.58096 2.68399 9.76565 2.98071 10.7523 3.63993C11.7389 4.29914 12.4665 5.28006 12.811 6.41556C13.1555 7.55105 13.0957 8.77087 12.6416 9.86718C12.1876 10.9635 11.3675 11.8685 10.3211 12.4279C9.27465 12.9874 8.0666 13.1667 6.90277 12.9353C5.73894 12.704 4.69133 12.0762 3.93843 11.1591C3.18554 10.2419 2.77394 9.09207 2.77376 7.90546C2.77143 7.23118 2.90303 6.56315 3.16092 5.94013C3.41881 5.31711 3.79786 4.75151 4.27608 4.27614V4.27784Z" fill="#5B5B5B"/>
</svg>
