<svg width="24" height="24" viewBox="0 0 24 24" fill="none" xmlns="http://www.w3.org/2000/svg">
<path d="M20 4C16.391 4 12.637 1.228 12.6 1.2C12.4269 1.07018 12.2164 1 12 1C11.7836 1 11.5731 1.07018 11.4 1.2C11.363 1.228 7.609 4 4 4C3.73478 4 3.48043 4.10536 3.29289 4.29289C3.10536 4.48043 3 4.73478 3 5C3 5.6 3.1 19.729 11.649 22.937C11.8749 23.0205 12.1231 23.0205 12.349 22.937C20.9 19.729 21 5.6 21 5C21 4.73478 20.8946 4.48043 20.7071 4.29289C20.5196 4.10536 20.2652 4 20 4ZM12 20.922C6.2 18.4 5.205 8.973 5.035 5.943C7.53061 5.5634 9.91008 4.63177 12 3.216C14.0899 4.63177 16.4694 5.5634 18.965 5.943C18.8 8.973 17.8 18.4 12 20.922ZM8 11C8 11.7911 8.2346 12.5645 8.67412 13.2223C9.11365 13.8801 9.73836 14.3928 10.4693 14.6955C11.2002 14.9983 12.0044 15.0775 12.7804 14.9231C13.5563 14.7688 14.269 14.3878 14.8284 13.8284C15.3878 13.269 15.7688 12.5563 15.9231 11.7804C16.0775 11.0044 15.9983 10.2002 15.6955 9.46927C15.3928 8.73836 14.8801 8.11365 14.2223 7.67412C13.5645 7.2346 12.7911 7 12 7C10.9391 7 9.92172 7.42143 9.17157 8.17157C8.42143 8.92172 8 9.93913 8 11ZM14 11C14 11.3956 13.8827 11.7822 13.6629 12.1111C13.4432 12.44 13.1308 12.6964 12.7654 12.8478C12.3999 12.9991 11.9978 13.0387 11.6098 12.9616C11.2219 12.8844 10.8655 12.6939 10.5858 12.4142C10.3061 12.1345 10.1156 11.7781 10.0384 11.3902C9.96126 11.0022 10.0009 10.6001 10.1522 10.2346C10.3036 9.86918 10.56 9.55682 10.8889 9.33706C11.2178 9.1173 11.6044 9 12 9C12.5304 9 13.0391 9.21071 13.4142 9.58579C13.7893 9.96086 14 10.4696 14 11Z" fill="#4F4E4E"/>
</svg>
