<svg width="22" height="23" viewBox="0 0 22 23" fill="none" xmlns="http://www.w3.org/2000/svg">
<path d="M19 9H17.92C17.7029 7.50706 17.0094 6.12419 15.9426 5.05742C14.8758 3.99065 13.4929 3.29706 12 3.08V1C12 0.734784 11.8946 0.48043 11.7071 0.292893C11.5196 0.105357 11.2652 0 11 0C10.7348 0 10.4804 0.105357 10.2929 0.292893C10.1054 0.48043 10 0.734784 10 1V3.08C8.50706 3.29706 7.12419 3.99065 6.05742 5.05742C4.99065 6.12419 4.29706 7.50706 4.08 9H3C2.20435 9 1.44129 9.31607 0.87868 9.87868C0.31607 10.4413 0 11.2044 0 12C0 12.7956 0.31607 13.5587 0.87868 14.1213C1.44129 14.6839 2.20435 15 3 15H5.484L3.084 20.606C3.03005 20.727 3.0007 20.8576 2.99765 20.9901C2.9946 21.1226 3.01792 21.2543 3.06624 21.3777C3.11456 21.5011 3.18693 21.6137 3.27914 21.7089C3.37134 21.8041 3.48155 21.88 3.60335 21.9322C3.72514 21.9844 3.85611 22.0119 3.98862 22.0131C4.12114 22.0142 4.25256 21.989 4.37526 21.939C4.49796 21.8889 4.60947 21.8149 4.70333 21.7214C4.79719 21.6278 4.87152 21.5165 4.922 21.394L7.659 15H10V19C10 19.2652 10.1054 19.5196 10.2929 19.7071C10.4804 19.8946 10.7348 20 11 20C11.2652 20 11.5196 19.8946 11.7071 19.7071C11.8946 19.5196 12 19.2652 12 19V15H14.341L17.081 21.394C17.188 21.634 17.3851 21.8222 17.6297 21.9181C17.8744 22.0139 18.1469 22.0095 18.3884 21.906C18.6299 21.8025 18.821 21.608 18.9202 21.3648C19.0195 21.1215 19.0191 20.8489 18.919 20.606L16.516 15H19C19.7956 15 20.5587 14.6839 21.1213 14.1213C21.6839 13.5587 22 12.7956 22 12C22 11.2044 21.6839 10.4413 21.1213 9.87868C20.5587 9.31607 19.7956 9 19 9ZM11 5C12.1523 5.00127 13.2688 5.39983 14.1614 6.12849C15.054 6.85715 15.6681 7.87133 15.9 9H6.1C6.33192 7.87133 6.94596 6.85715 7.83857 6.12849C8.73117 5.39983 9.84774 5.00127 11 5ZM19 13H3C2.73478 13 2.48043 12.8946 2.29289 12.7071C2.10536 12.5196 2 12.2652 2 12C2 11.7348 2.10536 11.4804 2.29289 11.2929C2.48043 11.1054 2.73478 11 3 11H19C19.2652 11 19.5196 11.1054 19.7071 11.2929C19.8946 11.4804 20 11.7348 20 12C20 12.2652 19.8946 12.5196 19.7071 12.7071C19.5196 12.8946 19.2652 13 19 13Z" fill="#4F4E4E"/>
</svg>
