<svg width="19" height="22" viewBox="0 0 19 22" fill="none" xmlns="http://www.w3.org/2000/svg">
<path d="M0.640587 5.25584L8.64059 8.58906C8.76241 8.64054 8.89333 8.66707 9.02559 8.66707C9.15785 8.66707 9.28876 8.64054 9.41059 8.58906L17.4106 5.25584C17.5925 5.17973 17.7478 5.05154 17.8571 4.88739C17.9663 4.72325 18.0246 4.53046 18.0246 4.33328C18.0246 4.1361 17.9663 3.94332 17.8571 3.77917C17.7478 3.61502 17.5925 3.48683 17.4106 3.41072L9.41059 0.0765083C9.16405 -0.0255028 8.88712 -0.0255028 8.64059 0.0765083L0.640587 3.41072C0.458698 3.48683 0.303366 3.61502 0.194119 3.77917C0.0848716 3.94332 0.0265844 4.1361 0.0265844 4.33328C0.0265844 4.53046 0.0848716 4.72325 0.194119 4.88739C0.303366 5.05154 0.458698 5.17973 0.640587 5.25584ZM9.02559 2.08264L14.4256 4.33278L9.02559 6.58293L3.62559 4.33278L9.02559 2.08264ZM17.4106 9.70013L9.41059 13.0333C9.28861 13.0842 9.15775 13.1104 9.02559 13.1104C8.89342 13.1104 8.76257 13.0842 8.64059 13.0333L0.640587 9.70013C0.519377 9.64956 0.409312 9.57562 0.316677 9.48252C0.224041 9.38942 0.15065 9.27898 0.100692 9.15751C0.0507337 9.03605 0.0251882 8.90593 0.0255134 8.77459C0.0258387 8.64325 0.0520283 8.51326 0.102587 8.39204C0.153146 8.27082 0.227084 8.16075 0.32018 8.06811C0.413275 7.97547 0.523705 7.90207 0.645164 7.85211C0.766623 7.80215 0.896732 7.7766 1.02806 7.77693C1.1594 7.77725 1.28938 7.80345 1.41059 7.85401L9.02559 11.0282L16.6406 7.85501C16.8854 7.75289 17.1607 7.75221 17.406 7.85311C17.6513 7.95401 17.8465 8.14823 17.9486 8.39304C18.0507 8.63785 18.0514 8.9132 17.9505 9.15851C17.8496 9.40383 17.6554 9.59901 17.4106 9.70113V9.70013ZM17.4106 14.1444L9.41059 17.4786C9.28861 17.5295 9.15775 17.5557 9.02559 17.5557C8.89342 17.5557 8.76257 17.5295 8.64059 17.4786L0.640587 14.1444C0.519377 14.0939 0.409312 14.0199 0.316677 13.9268C0.224041 13.8337 0.15065 13.7233 0.100692 13.6018C0.0507337 13.4803 0.0251882 13.3502 0.0255134 13.2189C0.0258387 13.0875 0.0520283 12.9575 0.102587 12.8363C0.153146 12.7151 0.227084 12.605 0.32018 12.5124C0.413275 12.4198 0.523705 12.3464 0.645164 12.2964C0.766623 12.2464 0.896732 12.2209 1.02806 12.2212C1.1594 12.2215 1.28938 12.2477 1.41059 12.2983L9.02559 15.4725L16.6406 12.3003C16.8854 12.1982 17.1607 12.1975 17.406 12.2984C17.6513 12.3993 17.8465 12.5935 17.9486 12.8383C18.0507 13.0831 18.0514 13.3585 17.9505 13.6038C17.8496 13.8491 17.6554 14.0443 17.4106 14.1464V14.1444ZM17.9486 17.2816C18.0504 17.5263 18.0509 17.8014 17.9501 18.0465C17.8492 18.2916 17.6551 18.4866 17.4106 18.5887L9.41059 21.9229C9.28861 21.9738 9.15775 22 9.02559 22C8.89342 22 8.76257 21.9738 8.64059 21.9229L0.640587 18.5887C0.515863 18.5407 0.402034 18.4681 0.305827 18.3753C0.209621 18.2825 0.13299 18.1714 0.0804627 18.0485C0.0279357 17.9256 0.000578899 17.7934 9.08868e-06 17.6597C-0.000560722 17.5261 0.025668 17.3936 0.0771451 17.2703C0.128622 17.1469 0.204303 17.0352 0.299715 16.9416C0.395127 16.8479 0.508333 16.7744 0.632644 16.7253C0.756954 16.6762 0.889846 16.6525 1.02346 16.6557C1.15708 16.6588 1.28872 16.6887 1.41059 16.7436L9.02559 19.9178L16.6406 16.7446C16.7618 16.694 16.8918 16.6678 17.0231 16.6675C17.1544 16.6671 17.2846 16.6927 17.406 16.7427C17.5275 16.7926 17.6379 16.866 17.731 16.9587C17.8241 17.0513 17.898 17.1614 17.9486 17.2826V17.2816Z" fill="#141414"/>
</svg>
