<svg width="23" height="24" viewBox="0 0 23 24" fill="none" xmlns="http://www.w3.org/2000/svg">
<path d="M11.1977 17.3148C12.2721 17.3148 13.3223 16.9763 14.2157 16.3421C15.109 15.7079 15.8052 14.8065 16.2163 13.7519C16.6275 12.6973 16.7351 11.5368 16.5255 10.4172C16.3159 9.29762 15.7985 8.26922 15.0388 7.46205C14.2791 6.65488 13.3112 6.10518 12.2575 5.88248C11.2038 5.65979 10.1116 5.77408 9.11897 6.21092C8.12638 6.64776 7.278 7.38752 6.68111 8.33666C6.08423 9.28579 5.76564 10.4017 5.76564 11.5432C5.76708 13.0734 6.33985 14.5406 7.35825 15.6226C8.37666 16.7047 9.7575 17.3133 11.1977 17.3148ZM11.1977 7.69545C11.914 7.69545 12.6141 7.92112 13.2097 8.34391C13.8052 8.76671 14.2694 9.36764 14.5435 10.0707C14.8176 10.7738 14.8893 11.5475 14.7496 12.2938C14.6098 13.0402 14.2649 13.7258 13.7585 14.264C13.252 14.8021 12.6067 15.1685 11.9042 15.317C11.2018 15.4655 10.4736 15.3893 9.81189 15.098C9.15017 14.8068 8.58458 14.3136 8.18666 13.6809C7.78873 13.0481 7.57634 12.3042 7.57634 11.5432C7.57634 10.5227 7.95788 9.54402 8.63702 8.82243C9.31617 8.10084 10.2373 7.69545 11.1977 7.69545ZM10.2924 2.88578V1.92385C10.2924 1.66873 10.3878 1.42406 10.5576 1.24366C10.7273 1.06326 10.9576 0.961914 11.1977 0.961914C11.4379 0.961914 11.6681 1.06326 11.8379 1.24366C12.0077 1.42406 12.1031 1.66873 12.1031 1.92385V2.88578C12.1031 3.1409 12.0077 3.38557 11.8379 3.56597C11.6681 3.74637 11.4379 3.84772 11.1977 3.84772C10.9576 3.84772 10.7273 3.74637 10.5576 3.56597C10.3878 3.38557 10.2924 3.1409 10.2924 2.88578ZM11.1977 19.2387C11.4379 19.2387 11.6681 19.34 11.8379 19.5204C12.0077 19.7008 12.1031 19.9455 12.1031 20.2006V21.1625C12.1031 21.4177 12.0077 21.6623 11.8379 21.8427C11.6681 22.0231 11.4379 22.1245 11.1977 22.1245C10.9576 22.1245 10.7273 22.0231 10.5576 21.8427C10.3878 21.6623 10.2924 21.4177 10.2924 21.1625V20.2006C10.2924 19.9455 10.3878 19.7008 10.5576 19.5204C10.7273 19.34 10.9576 19.2387 11.1977 19.2387ZM16.3193 6.10153C16.1496 5.92114 16.0542 5.67651 16.0542 5.42144C16.0542 5.16637 16.1496 4.92174 16.3193 4.74135L16.9594 4.06127C17.1301 3.88604 17.3588 3.78908 17.5962 3.79128C17.8336 3.79347 18.0607 3.89463 18.2285 4.07298C18.3964 4.25133 18.4916 4.4926 18.4937 4.74481C18.4957 4.99703 18.4045 5.24002 18.2395 5.42144L17.5995 6.10153C17.4297 6.28186 17.1995 6.38317 16.9594 6.38317C16.7193 6.38317 16.4891 6.28186 16.3193 6.10153ZM6.07618 16.9848C6.2459 17.1652 6.34125 17.4099 6.34125 17.6649C6.34125 17.92 6.2459 18.1646 6.07618 18.345L5.43609 19.0251C5.26534 19.2003 5.03665 19.2973 4.79927 19.2951C4.56189 19.2929 4.33482 19.1917 4.16696 19.0134C3.9991 18.835 3.90388 18.5938 3.90182 18.3416C3.89976 18.0893 3.99101 17.8464 4.15593 17.6649L4.79601 16.9848C4.96579 16.8045 5.19603 16.7032 5.43609 16.7032C5.67616 16.7032 5.9064 16.8045 6.07618 16.9848ZM21.1566 11.5432C21.1566 11.7983 21.0612 12.043 20.8914 12.2234C20.7216 12.4038 20.4914 12.5051 20.2512 12.5051H19.3459C19.1058 12.5051 18.8755 12.4038 18.7057 12.2234C18.5359 12.043 18.4405 11.7983 18.4405 11.5432C18.4405 11.2881 18.5359 11.0434 18.7057 10.863C18.8755 10.6826 19.1058 10.5813 19.3459 10.5813H20.2512C20.4914 10.5813 20.7216 10.6826 20.8914 10.863C21.0612 11.0434 21.1566 11.2881 21.1566 11.5432ZM1.23889 11.5432C1.23889 11.2881 1.33428 11.0434 1.50406 10.863C1.67385 10.6826 1.90413 10.5813 2.14424 10.5813H3.04959C3.2897 10.5813 3.51998 10.6826 3.68977 10.863C3.85956 11.0434 3.95494 11.2881 3.95494 11.5432C3.95494 11.7983 3.85956 12.043 3.68977 12.2234C3.51998 12.4038 3.2897 12.5051 3.04959 12.5051H2.14424C1.90413 12.5051 1.67385 12.4038 1.50406 12.2234C1.33428 12.043 1.23889 11.7983 1.23889 11.5432ZM17.5995 16.9848L18.2395 17.6649C18.326 17.7537 18.395 17.8598 18.4424 17.9772C18.4899 18.0945 18.5149 18.2208 18.5159 18.3485C18.517 18.4762 18.494 18.6029 18.4485 18.7211C18.403 18.8393 18.3358 18.9467 18.2508 19.037C18.1658 19.1274 18.0647 19.1988 17.9534 19.2471C17.8422 19.2955 17.7229 19.3199 17.6027 19.3187C17.4825 19.3176 17.3637 19.2911 17.2533 19.2407C17.1428 19.1903 17.0429 19.117 16.9594 19.0251L16.3193 18.345C16.1544 18.1636 16.0631 17.9206 16.0652 17.6684C16.0673 17.4162 16.1625 17.1749 16.3303 16.9966C16.4982 16.8182 16.7253 16.7171 16.9626 16.7149C17.2 16.7127 17.4287 16.8096 17.5995 16.9848ZM4.15593 5.42144C3.99101 5.24002 3.89976 4.99703 3.90182 4.74481C3.90388 4.4926 3.9991 4.25133 4.16696 4.07298C4.33482 3.89463 4.56189 3.79347 4.79927 3.79128C5.03665 3.78908 5.26534 3.88604 5.43609 4.06127L6.07618 4.74135C6.16265 4.83009 6.23162 4.93623 6.27907 5.05359C6.32651 5.17095 6.35149 5.29718 6.35253 5.4249C6.35358 5.55263 6.33067 5.67929 6.28515 5.79751C6.23963 5.91573 6.1724 6.02313 6.0874 6.11345C6.00239 6.20377 5.90131 6.2752 5.79004 6.32356C5.67878 6.37193 5.55956 6.39627 5.43935 6.39516C5.31914 6.39405 5.20034 6.36751 5.08988 6.3171C4.97943 6.26669 4.87953 6.1934 4.79601 6.10153L4.15593 5.42144Z" fill="black"/>
</svg>
