<svg width="19" height="19" viewBox="0 0 19 19" fill="none" xmlns="http://www.w3.org/2000/svg">
<path d="M3.16602 5.54167C3.16602 6.16797 3.35174 6.78022 3.69969 7.30097C4.04765 7.82173 4.54222 8.22761 5.12085 8.46729C5.69948 8.70696 6.33619 8.76967 6.95047 8.64749C7.56474 8.5253 8.12899 8.2237 8.57185 7.78084C9.01472 7.33797 9.31632 6.77373 9.4385 6.15945C9.56069 5.54518 9.49798 4.90847 9.2583 4.32984C9.01862 3.7512 8.61274 3.25664 8.09199 2.90868C7.57123 2.56072 6.95899 2.375 6.33268 2.375C5.49283 2.375 4.68738 2.70863 4.09351 3.3025C3.49965 3.89636 3.16602 4.70181 3.16602 5.54167ZM7.91602 5.54167C7.91602 5.85482 7.82315 6.16094 7.64918 6.42132C7.4752 6.6817 7.22791 6.88464 6.9386 7.00448C6.64928 7.12431 6.33093 7.15567 6.02379 7.09458C5.71665 7.03348 5.43453 6.88269 5.2131 6.66125C4.99166 6.43982 4.84087 6.1577 4.77977 5.85056C4.71868 5.54342 4.75003 5.22507 4.86987 4.93575C4.98971 4.64643 5.19265 4.39915 5.45303 4.22517C5.71341 4.05119 6.01953 3.95833 6.33268 3.95833C6.75261 3.95833 7.15533 4.12515 7.45227 4.42208C7.7492 4.71901 7.91602 5.12174 7.91602 5.54167ZM1.58268 16.625H11.0827C11.2926 16.625 11.494 16.5416 11.6425 16.3931C11.7909 16.2447 11.8743 16.0433 11.8743 15.8333V13.4583C11.8743 12.6185 11.5407 11.813 10.9469 11.2192C10.353 10.6253 9.54753 10.2917 8.70768 10.2917H3.95768C3.11783 10.2917 2.31238 10.6253 1.71851 11.2192C1.12465 11.813 0.791016 12.6185 0.791016 13.4583V15.8333C0.791016 16.0433 0.874423 16.2447 1.02289 16.3931C1.17136 16.5416 1.37272 16.625 1.58268 16.625ZM2.37435 13.4583C2.37435 13.0384 2.54116 12.6357 2.8381 12.3387C3.13503 12.0418 3.53776 11.875 3.95768 11.875H8.70768C9.12761 11.875 9.53033 12.0418 9.82727 12.3387C10.1242 12.6357 10.291 13.0384 10.291 13.4583V15.0417H2.37435V13.4583ZM18.2077 3.16667C18.2077 3.37663 18.1243 3.57799 17.9758 3.72646C17.8273 3.87493 17.626 3.95833 17.416 3.95833H12.666C12.4561 3.95833 12.2547 3.87493 12.1062 3.72646C11.9578 3.57799 11.8743 3.37663 11.8743 3.16667C11.8743 2.9567 11.9578 2.75534 12.1062 2.60687C12.2547 2.45841 12.4561 2.375 12.666 2.375H17.416C17.626 2.375 17.8273 2.45841 17.9758 2.60687C18.1243 2.75534 18.2077 2.9567 18.2077 3.16667ZM18.2077 6.33333C18.2077 6.5433 18.1243 6.74466 17.9758 6.89313C17.8273 7.04159 17.626 7.125 17.416 7.125H12.666C12.4561 7.125 12.2547 7.04159 12.1062 6.89313C11.9578 6.74466 11.8743 6.5433 11.8743 6.33333C11.8743 6.12337 11.9578 5.92201 12.1062 5.77354C12.2547 5.62507 12.4561 5.54167 12.666 5.54167H17.416C17.626 5.54167 17.8273 5.62507 17.9758 5.77354C18.1243 5.92201 18.2077 6.12337 18.2077 6.33333ZM18.2077 9.5C18.2077 9.70996 18.1243 9.91133 17.9758 10.0598C17.8273 10.2083 17.626 10.2917 17.416 10.2917H12.666C12.4561 10.2917 12.2547 10.2083 12.1062 10.0598C11.9578 9.91133 11.8743 9.70996 11.8743 9.5C11.8743 9.29004 11.9578 9.08867 12.1062 8.94021C12.2547 8.79174 12.4561 8.70833 12.666 8.70833H17.416C17.626 8.70833 17.8273 8.79174 17.9758 8.94021C18.1243 9.08867 18.2077 9.29004 18.2077 9.5Z" fill="#4F4E4E"/>
</svg>
