<svg width="20" height="20" viewBox="0 0 20 20" fill="none" xmlns="http://www.w3.org/2000/svg">
<path d="M16.6359 9.52637V6.21188C16.6359 6.00178 16.5524 5.80029 16.4038 5.65173C16.2553 5.50316 16.0538 5.4197 15.8437 5.4197H3.16878C2.95868 5.4197 2.75719 5.33624 2.60862 5.18768C2.46006 5.03911 2.3766 4.83762 2.3766 4.62752C2.3766 4.41742 2.46006 4.21593 2.60862 4.06736C2.75719 3.9188 2.95868 3.83534 3.16878 3.83534H15.8437C16.0538 3.83534 16.2553 3.75188 16.4038 3.60331C16.5524 3.45475 16.6359 3.25326 16.6359 3.04316C16.6359 2.83306 16.5524 2.63156 16.4038 2.483C16.2553 2.33444 16.0538 2.25098 15.8437 2.25098H3.16878C2.53848 2.25098 1.934 2.50136 1.48831 2.94705C1.04262 3.39274 0.792236 3.99722 0.792236 4.62752V15.7181C0.792236 16.3484 1.04262 16.9528 1.48831 17.3985C1.934 17.8442 2.53848 18.0946 3.16878 18.0946H15.8437C16.0538 18.0946 16.2553 18.0111 16.4038 17.8626C16.5524 17.714 16.6359 17.5125 16.6359 17.3024V13.9879C17.0989 13.8266 17.5003 13.5252 17.7843 13.1254C18.0684 12.7257 18.221 12.2475 18.221 11.7572C18.221 11.2668 18.0684 10.7886 17.7843 10.3889C17.5003 9.98912 17.0989 9.68769 16.6359 9.52637ZM15.0515 16.5102H3.16878C2.95868 16.5102 2.75719 16.4268 2.60862 16.2782C2.46006 16.1297 2.3766 15.9282 2.3766 15.7181V6.8583C2.6303 6.95213 2.8983 7.00144 3.16878 7.00406H15.0515V9.38061H12.675C12.0447 9.38061 11.4402 9.63099 10.9945 10.0767C10.5488 10.5224 10.2984 11.1269 10.2984 11.7572C10.2984 12.3874 10.5488 12.9919 10.9945 13.4376C11.4402 13.8833 12.0447 14.1337 12.675 14.1337H15.0515V16.5102ZM15.8437 12.5493H12.675C12.4649 12.5493 12.2634 12.4659 12.1148 12.3173C11.9662 12.1687 11.8828 11.9672 11.8828 11.7572C11.8828 11.5471 11.9662 11.3456 12.1148 11.197C12.2634 11.0484 12.4649 10.965 12.675 10.965H15.8437C16.0538 10.965 16.2553 11.0484 16.4038 11.197C16.5524 11.3456 16.6359 11.5471 16.6359 11.7572C16.6359 11.9672 16.5524 12.1687 16.4038 12.3173C16.2553 12.4659 16.0538 12.5493 15.8437 12.5493Z" fill="black"/>
</svg>
