<svg width="70" height="15" viewBox="0 0 70 15" fill="none" xmlns="http://www.w3.org/2000/svg">
<path d="M14.2492 8.98458C13.2776 12.8483 9.36869 15.2208 5.48237 14.2492C1.61865 13.2776 -0.753814 9.3687 0.217766 5.48238C1.18935 1.61865 5.09826 -0.753814 8.98458 0.217766C12.8709 1.18935 15.2208 5.12086 14.2492 8.98458Z" fill="#F7931A"/>
<path d="M10.4313 6.20521C10.5669 5.23363 9.84388 4.73654 8.84971 4.37502L9.16603 3.06452L8.37521 2.86117L8.05889 4.12648C7.85553 4.08129 7.62958 4.0361 7.42623 3.96831L7.74255 2.6804L6.95173 2.47705L6.6354 3.78756C6.45465 3.74237 6.29649 3.71977 6.13832 3.67458L5.05376 3.40344L4.85041 4.26204C4.85041 4.26204 5.43788 4.39762 5.41528 4.39762C5.73161 4.48799 5.7994 4.69135 5.7768 4.84951L5.41528 6.34078C5.43788 6.34078 5.46047 6.36337 5.50566 6.36337C5.48307 6.36337 5.46047 6.34078 5.41528 6.34078L4.8956 8.41951C4.85041 8.50989 4.76003 8.66805 4.53408 8.60026C4.53408 8.62286 3.94662 8.46469 3.94662 8.46469L3.5625 9.36849L4.60187 9.61703C4.80522 9.66222 4.98598 9.70741 5.16674 9.7526L4.82781 11.0631L5.61864 11.2665L5.93496 9.95596C6.16091 10.0237 6.36427 10.0689 6.56762 10.1141L6.2513 11.402L7.04212 11.6054L7.38104 10.2949C8.73673 10.5434 9.7535 10.453 10.1828 9.23292C10.5217 8.23874 10.1602 7.67387 9.45976 7.31235C9.93426 7.26716 10.341 6.92824 10.4313 6.20521ZM8.62376 8.75843C8.37521 9.75261 6.72578 9.21033 6.18351 9.07476L6.61281 7.33495C7.15509 7.47052 8.8723 7.71907 8.62376 8.75843ZM8.8723 6.20521C8.64635 7.109 7.26807 6.6571 6.81617 6.54413L7.20028 4.96249C7.65217 5.05287 9.09825 5.25622 8.8723 6.20521Z" fill="white"/>
<path d="M21.2088 4.39805C21.7963 4.39805 22.2934 4.51103 22.7227 4.71438C23.152 4.91773 23.5135 5.21147 23.7846 5.55039C24.0558 5.91191 24.2817 6.31862 24.4173 6.79311C24.5528 7.2676 24.6206 7.78728 24.6206 8.32956C24.6206 9.16557 24.4625 9.95639 24.1461 10.7246C23.8298 11.4703 23.4231 12.1255 22.8808 12.6904C22.3385 13.2552 21.7059 13.6845 20.9829 14.0009C20.2598 14.3172 19.469 14.4754 18.6104 14.4754C18.4974 14.4754 18.3167 14.4754 18.0229 14.4754C17.7292 14.4754 17.4355 14.4528 17.0739 14.385C16.7124 14.3398 16.3509 14.272 15.9442 14.159C15.5375 14.0687 15.176 13.9331 14.8145 13.7523L17.9777 0.44395L20.8021 0.0146484L19.6724 4.73698C19.9209 4.624 20.1694 4.53362 20.3954 4.48843C20.6665 4.42065 20.9151 4.39805 21.2088 4.39805ZM18.8363 12.2159C19.2656 12.2159 19.6724 12.1029 20.0339 11.8996C20.418 11.6962 20.7343 11.4251 21.0054 11.0635C21.2766 10.7246 21.5025 10.3179 21.6607 9.88861C21.8189 9.45931 21.9092 8.98482 21.9092 8.51032C21.9092 7.92286 21.8189 7.47096 21.6155 7.13204C21.4122 6.79311 21.0506 6.63494 20.531 6.63494C20.3502 6.63494 20.1468 6.65755 19.8531 6.72533C19.582 6.79311 19.3334 6.90608 19.1075 7.10944L17.9099 12.1255C17.9777 12.1481 18.0455 12.1481 18.1133 12.1707C18.1585 12.1933 18.2263 12.1933 18.2941 12.1933C18.3618 12.1933 18.4296 12.1933 18.52 12.1933C18.6104 12.1933 18.7008 12.2159 18.8363 12.2159Z" fill="#4D4D4D"/>
<path d="M27.5571 14.2266H24.8457L27.1278 4.60118H29.8618L27.5571 14.2266ZM28.8676 3.42625C28.4835 3.42625 28.1446 3.31327 27.8508 3.08733C27.5345 2.86138 27.3989 2.52245 27.3989 2.04796C27.3989 1.79942 27.4441 1.55087 27.5571 1.32492C27.6701 1.09897 27.8056 0.895624 27.9638 0.73746C28.1446 0.579296 28.3253 0.443724 28.5513 0.353344C28.7772 0.262965 29.0258 0.217773 29.2743 0.217773C29.6584 0.217773 29.9973 0.330748 30.2911 0.556697C30.5848 0.782645 30.743 1.12157 30.743 1.59606C30.743 1.84461 30.6978 2.09315 30.5848 2.3191C30.4718 2.54505 30.3363 2.7484 30.1781 2.90656C29.9973 3.06473 29.8166 3.2003 29.5906 3.29068C29.3647 3.38106 29.1161 3.42625 28.8676 3.42625Z" fill="#4D4D4D"/>
<path d="M32.2352 2.20616L35.0822 1.77686L34.3817 4.62381H37.4095L36.8672 6.8607H33.8395L33.026 10.2273C32.9583 10.4985 32.9131 10.7696 32.8905 11.0182C32.8679 11.2667 32.9131 11.4701 32.9809 11.6508C33.0486 11.8316 33.1842 11.9671 33.365 12.0575C33.5457 12.1479 33.8169 12.2157 34.1784 12.2157C34.4721 12.2157 34.7659 12.1931 35.037 12.1253C35.3081 12.0801 35.5793 11.9897 35.873 11.8994L36.0764 13.9781C35.7148 14.1137 35.3081 14.2266 34.8788 14.317C34.4495 14.4074 33.9524 14.4526 33.365 14.4526C32.529 14.4526 31.8737 14.317 31.3992 14.0685C30.9247 13.8199 30.6084 13.481 30.405 13.0517C30.2017 12.6224 30.1339 12.1253 30.1565 11.5604C30.1791 10.9956 30.2695 10.4081 30.405 9.77545L32.2352 2.20616Z" fill="#4D4D4D"/>
<path d="M37.2969 10.3854C37.2969 9.54936 37.4324 8.78113 37.7036 8.0355C37.9747 7.31247 38.3588 6.65721 38.8559 6.11494C39.353 5.57266 39.9631 5.14335 40.6861 4.82703C41.3865 4.5107 42.2 4.35254 43.0812 4.35254C43.6234 4.35254 44.1205 4.39772 44.5498 4.5107C44.9791 4.62367 45.3858 4.75925 45.7248 4.91741L44.7984 7.04133C44.5498 6.95095 44.3013 6.86057 44.0301 6.77019C43.759 6.67981 43.4427 6.65721 43.0586 6.65721C42.1548 6.65721 41.4317 6.97354 40.9121 7.5836C40.3924 8.21626 40.1212 9.05227 40.1212 10.0916C40.1212 10.7243 40.2568 11.2214 40.5279 11.6055C40.7991 11.9896 41.2962 12.1704 42.0192 12.1704C42.3807 12.1704 42.7196 12.1252 43.036 12.0574C43.3749 11.9896 43.6686 11.8992 43.9172 11.7863L44.1205 13.9554C43.7816 14.0909 43.3975 14.2039 42.9908 14.3169C42.5841 14.4073 42.087 14.475 41.4995 14.475C40.7539 14.475 40.0986 14.3621 39.579 14.1361C39.0593 13.9102 38.63 13.6164 38.291 13.2549C37.9521 12.8708 37.7036 12.4415 37.5454 11.9444C37.3647 11.4473 37.2969 10.9276 37.2969 10.3854Z" fill="#4D4D4D"/>
<path d="M49.3155 14.475C48.6602 14.475 48.1179 14.3847 47.6209 14.1813C47.1464 13.978 46.7623 13.7068 46.4459 13.3679C46.1296 13.0064 45.9036 12.5997 45.7455 12.1252C45.5873 11.6507 45.5195 11.1084 45.5195 10.5209C45.5195 9.7979 45.6325 9.05227 45.8811 8.32923C46.107 7.6062 46.4685 6.92835 46.943 6.36348C47.3949 5.77602 47.9824 5.30152 48.6376 4.91741C49.3155 4.55589 50.0837 4.35254 50.9423 4.35254C51.575 4.35254 52.1398 4.44292 52.6143 4.64627C53.0888 4.84962 53.4955 5.12076 53.8119 5.45969C54.1282 5.8212 54.3541 6.22791 54.5123 6.70241C54.6705 7.1769 54.7608 7.71918 54.7608 8.30664C54.7608 9.02968 54.6479 9.77531 54.4219 10.4983C54.196 11.2214 53.857 11.8766 53.4051 12.4641C52.9533 13.0516 52.3884 13.5261 51.7105 13.9102C50.9875 14.2943 50.2193 14.475 49.3155 14.475ZM50.6712 6.63462C50.2645 6.63462 49.9255 6.74759 49.6092 6.97354C49.2929 7.19949 49.0443 7.49323 48.841 7.85475C48.6376 8.21626 48.4795 8.60037 48.3665 9.00708C48.2535 9.43638 48.2083 9.8205 48.2083 10.2046C48.2083 10.8147 48.2987 11.2892 48.5021 11.6281C48.7054 11.967 49.0443 12.1478 49.564 12.1478C49.9707 12.1478 50.3096 12.0348 50.626 11.8088C50.9197 11.5829 51.1908 11.2892 51.3942 10.9276C51.5976 10.5661 51.7557 10.182 51.8687 9.77531C51.9817 9.34601 52.0269 8.96189 52.0269 8.57778C52.0269 7.96772 51.9365 7.49323 51.7331 7.1543C51.5298 6.81538 51.1908 6.63462 50.6712 6.63462Z" fill="#4D4D4D"/>
<path d="M57.6762 14.2266H54.9648L57.2469 4.60118H59.9809L57.6762 14.2266ZM59.0093 3.42625C58.6252 3.42625 58.2863 3.31327 57.9926 3.08733C57.6988 2.86138 57.5407 2.52245 57.5407 2.04796C57.5407 1.79942 57.5859 1.55087 57.6988 1.32492C57.8118 1.09897 57.9474 0.895624 58.1055 0.73746C58.2863 0.579296 58.467 0.443724 58.693 0.353344C58.9189 0.262965 59.1675 0.217773 59.416 0.217773C59.8002 0.217773 60.1391 0.330748 60.4328 0.556697C60.7265 0.782645 60.8847 1.12157 60.8847 1.59606C60.8847 1.84461 60.8395 2.09315 60.7265 2.3191C60.6136 2.54505 60.478 2.7484 60.3198 2.90656C60.1391 3.06473 59.9583 3.2003 59.7324 3.29068C59.5064 3.38106 59.2579 3.42625 59.0093 3.42625Z" fill="#4D4D4D"/>
<path d="M61.9478 5.03026C62.1512 4.96247 62.3771 4.89468 62.6257 4.8269C62.8742 4.75911 63.1454 4.66873 63.4617 4.60095C63.778 4.53316 64.1169 4.48798 64.5011 4.44279C64.8852 4.3976 65.3145 4.375 65.8116 4.375C67.235 4.375 68.2292 4.78171 68.7715 5.61772C69.3138 6.45373 69.4041 7.58347 69.0652 9.02955L67.8225 14.2264H65.0885L66.2861 9.14252C66.3538 8.82619 66.4216 8.50986 66.4668 8.21613C66.512 7.9224 66.512 7.65126 66.4668 7.42531C66.4216 7.19936 66.3086 7.0186 66.1279 6.88303C65.9471 6.74746 65.676 6.67968 65.3145 6.67968C64.9529 6.67968 64.5914 6.72487 64.2299 6.79265L62.4449 14.249H59.7109L61.9478 5.03026Z" fill="#4D4D4D"/>
</svg>
