<svg width="101" height="35" viewBox="0 0 101 35" fill="none" xmlns="http://www.w3.org/2000/svg">
<path d="M32.1999 19.9738C32.1999 20.1382 32.0622 20.2722 31.8978 20.2722H26.0808C26.227 21.7097 27.3075 23.0205 28.8291 23.0205C29.3001 23.0412 29.7683 22.939 30.1878 22.7239C30.6073 22.5088 30.9636 22.1883 31.2217 21.7938C31.3069 21.6793 31.4324 21.6062 31.592 21.6756C31.6348 21.6943 31.6723 21.7233 31.701 21.7601C31.7297 21.7969 31.7488 21.8403 31.7565 21.8864C31.7723 21.9814 31.7443 22.035 31.7199 22.0886C31.1352 23.1094 29.9693 23.6113 28.8267 23.6113C26.8702 23.6113 25.4766 21.8608 25.4766 19.9884C25.4766 18.116 26.8714 16.3654 28.8267 16.3654C30.7819 16.3654 32.1974 18.1075 32.2011 19.9774M31.592 19.6948C31.4653 18.2573 30.3653 16.9465 28.8437 16.9465C27.3222 16.9465 26.2404 18.2573 26.0954 19.6948H31.592ZM39.2741 16.5067C39.4422 16.5067 39.564 16.6529 39.564 16.7967C39.564 16.9648 39.4373 17.0866 39.2741 17.0866H37.7147V23.2057C37.7147 23.3519 37.588 23.4956 37.4248 23.4956C37.2616 23.4956 37.1349 23.3494 37.1349 23.2057V17.0866H35.6365C35.4684 17.0866 35.3465 16.9599 35.3465 16.7967C35.3465 16.6505 35.4732 16.5067 35.6365 16.5067H37.1349V14.2628C37.1349 14.1215 37.2299 13.9911 37.3785 13.968C37.5734 13.9375 37.7257 14.0715 37.7257 14.2542V16.5018L39.2741 16.5067ZM48.7761 19.4645V23.1716C48.7761 23.3397 48.6299 23.4615 48.4862 23.4615C48.3181 23.4615 48.1963 23.3348 48.1963 23.1716V19.4767C48.1963 18.2268 47.4897 16.977 46.0936 16.977C44.3053 16.977 43.5329 18.5399 43.6365 20.1419C43.6365 20.1845 43.656 20.3709 43.656 20.3904V23.1728C43.656 23.3141 43.5609 23.4445 43.4123 23.4676C43.2174 23.4981 43.0651 23.364 43.0651 23.1813V11.0053C43.0651 10.8591 43.1918 10.7153 43.3551 10.7153C43.5183 10.7153 43.645 10.8615 43.645 11.0053V17.8967C44.1323 17.0025 45.0399 16.3983 46.079 16.3983C47.7869 16.3983 48.7664 17.8967 48.7664 19.4804M59.1967 19.992C59.1967 20.1565 59.0591 20.2905 58.8946 20.2905H53.074C53.2202 21.728 54.3007 23.0388 55.8223 23.0388C56.2932 23.0595 56.7615 22.9573 57.181 22.7422C57.6005 22.5271 57.9568 22.2065 58.2148 21.812C58.3001 21.6975 58.4256 21.6244 58.5852 21.6939C58.628 21.7125 58.6654 21.7416 58.6942 21.7784C58.7229 21.8152 58.742 21.8586 58.7496 21.9046C58.7655 21.9996 58.7375 22.0533 58.7131 22.1069C58.1284 23.1277 56.9625 23.6296 55.8198 23.6296C53.8634 23.6296 52.4697 21.879 52.4697 20.0067C52.4697 18.1343 53.8646 16.3837 55.8198 16.3837C57.7751 16.3837 59.1943 18.1257 59.1979 19.9957M58.5706 19.7131C58.4439 18.2756 57.3438 16.9648 55.8223 16.9648C54.3007 16.9648 53.219 18.2756 53.074 19.7131H58.5706ZM66.3501 16.7967C66.3501 16.9843 66.2465 17.0866 66.0784 17.1097C64.3705 17.3583 63.6018 18.7543 63.6018 20.377V23.1594C63.6018 23.3007 63.5068 23.4311 63.3581 23.4542C63.1632 23.4847 63.011 23.3506 63.011 23.1679V16.8271C63.011 16.6858 63.106 16.5554 63.2546 16.5323C63.4495 16.5018 63.6018 16.6359 63.6018 16.8186V18.1099C64.0793 17.2998 65.0393 16.5262 66.0358 16.5262C66.182 16.5226 66.3489 16.6298 66.3489 16.7942M75.9033 19.9933C75.9033 20.1577 75.7657 20.2917 75.6012 20.2917H69.7842C69.9304 21.7292 71.011 23.04 72.5325 23.04C73.0035 23.0607 73.4717 22.9585 73.8912 22.7434C74.3107 22.5283 74.667 22.2078 74.9251 21.8133C75.0104 21.6988 75.1358 21.6257 75.2954 21.6951C75.3382 21.7137 75.3757 21.7428 75.4044 21.7796C75.4331 21.8164 75.4522 21.8598 75.4599 21.9058C75.4757 22.0009 75.4477 22.0545 75.4233 22.1081C74.8386 23.1289 73.6728 23.6308 72.5301 23.6308C70.5736 23.6308 69.18 21.8803 69.18 20.0079C69.18 18.1355 70.5748 16.3849 72.5301 16.3849C74.4853 16.3849 75.9009 18.1269 75.9045 19.9969M75.2954 19.7143C75.1687 18.2768 74.0687 16.966 72.5471 16.966C71.0256 16.966 69.9438 18.2768 69.7988 19.7143H75.2954ZM85.3091 16.871V23.2264C85.3091 23.3945 85.163 23.5163 85.0192 23.5163C84.8511 23.5163 84.7293 23.3896 84.7293 23.2264V22.0082C84.2517 22.9669 83.3953 23.6528 82.3136 23.6528C80.5861 23.6528 79.6262 22.1544 79.6262 20.5707V16.8429C79.6262 16.6968 79.7529 16.553 79.9161 16.553C80.0794 16.553 80.2061 16.6992 80.2061 16.8429V20.5707C80.2061 21.8206 80.9126 23.0705 82.3087 23.0705C84.2651 23.0705 84.7244 21.2395 84.7244 19.2185V16.8332C84.7244 16.6651 84.8925 16.4921 85.0984 16.553C85.2251 16.5957 85.3091 16.7175 85.3091 16.8478M100.025 19.439V23.1667C100.025 23.3348 99.879 23.4566 99.7352 23.4566C99.5671 23.4566 99.4453 23.3299 99.4453 23.1667V19.439C99.4453 18.1891 98.7387 16.9623 97.3427 16.9623C95.5921 16.9623 94.9269 18.8347 94.9269 20.2917V23.1667C94.9269 23.3348 94.7808 23.4566 94.637 23.4566C94.4689 23.4566 94.3471 23.3299 94.3471 23.1667V19.439C94.3471 18.1891 93.6405 16.9623 92.2444 16.9623C90.4744 16.9623 89.7447 18.3572 89.8104 20.2113C89.8104 20.2539 89.8299 20.338 89.8104 20.3575V23.1594C89.8104 23.3007 89.7154 23.4311 89.5729 23.4542C89.378 23.4847 89.2257 23.3506 89.2257 23.1679V16.7967C89.2257 16.6553 89.3207 16.525 89.4693 16.5018C89.6643 16.4714 89.8165 16.6054 89.8165 16.7881V17.8504C90.3038 16.9562 91.2114 16.3715 92.2505 16.3715C93.4359 16.3715 94.3532 17.1207 94.7272 18.2256C95.2047 17.1438 96.1403 16.3715 97.3488 16.3715C99.0567 16.3715 100.036 17.8334 100.036 19.417" fill="#3C3C3B"/>
<g opacity="0.6">
<path d="M10.5411 12.6958L0 17.4898L10.5411 23.7175L21.078 17.4898L10.5411 12.6958Z" fill="#010101"/>
</g>
<g opacity="0.45">
<path d="M0 17.4898L10.5411 23.7175V0L0 17.4898Z" fill="#010101"/>
</g>
<g opacity="0.8">
<path d="M10.541 0V23.7175L21.078 17.4898L10.541 0Z" fill="#010101"/>
</g>
<g opacity="0.45">
<path d="M0 19.4868L10.5411 34.3372V25.7145L0 19.4868Z" fill="#010101"/>
</g>
<g opacity="0.8">
<path d="M10.541 25.7145V34.3372L21.0863 19.4868L10.541 25.7145Z" fill="#010101"/>
</g>
</svg>
