<svg width="21" height="21" viewBox="0 0 21 21" fill="none" xmlns="http://www.w3.org/2000/svg">
<g clip-path="url(#clip0_1697_3606)">
<path d="M17.7774 3.63643C16.4389 3.02229 15.0036 2.56981 13.5029 2.31066C13.4756 2.30566 13.4483 2.31816 13.4342 2.34315C13.2496 2.67147 13.0451 3.09978 12.902 3.43643C11.2879 3.19478 9.68203 3.19478 8.10103 3.43643C7.95782 3.0923 7.74592 2.67147 7.5605 2.34315C7.54642 2.31899 7.51912 2.30649 7.49179 2.31066C5.99192 2.56898 4.55662 3.02146 3.21732 3.63643C3.20572 3.64143 3.19579 3.64977 3.18919 3.6606C0.466718 7.72791 -0.279081 11.6953 0.0867826 15.6134C0.0884381 15.6326 0.0991986 15.6509 0.114098 15.6626C1.91031 16.9817 3.65024 17.7825 5.35787 18.3133C5.3852 18.3216 5.41415 18.3116 5.43155 18.2891C5.83549 17.7375 6.19556 17.1558 6.50429 16.5442C6.52251 16.5084 6.50512 16.4659 6.46788 16.4517C5.89674 16.235 5.3529 15.9709 4.82976 15.6709C4.78838 15.6467 4.78507 15.5876 4.82314 15.5592C4.93323 15.4767 5.04334 15.3909 5.14846 15.3042C5.16748 15.2884 5.19398 15.2851 5.21634 15.2951C8.65312 16.8642 12.3739 16.8642 15.7701 15.2951C15.7924 15.2842 15.8189 15.2876 15.8388 15.3034C15.9439 15.3901 16.054 15.4767 16.1649 15.5592C16.203 15.5876 16.2005 15.6467 16.1591 15.6709C15.636 15.9767 15.0922 16.235 14.5202 16.4509C14.483 16.465 14.4664 16.5084 14.4846 16.5442C14.8 17.155 15.16 17.7366 15.5565 18.2883C15.5731 18.3116 15.6029 18.3216 15.6302 18.3133C17.3461 17.7825 19.086 16.9817 20.8823 15.6626C20.898 15.6509 20.9079 15.6334 20.9096 15.6142C21.3474 11.0844 20.1762 7.14961 17.8047 3.66142C17.7989 3.64977 17.789 3.64143 17.7774 3.63643ZM7.01752 13.2277C5.98281 13.2277 5.13024 12.2777 5.13024 11.1111C5.13024 9.94448 5.96628 8.99454 7.01752 8.99454C8.07701 8.99454 8.92133 9.95282 8.90477 11.1111C8.90477 12.2777 8.06873 13.2277 7.01752 13.2277ZM13.9954 13.2277C12.9607 13.2277 12.1082 12.2777 12.1082 11.1111C12.1082 9.94448 12.9442 8.99454 13.9954 8.99454C15.0549 8.99454 15.8992 9.95282 15.8827 11.1111C15.8827 12.2777 15.0549 13.2277 13.9954 13.2277Z" fill="#5865F2"/>
</g>
<defs>
<clipPath id="clip0_1697_3606">
<rect width="21" height="21" fill="white"/>
</clipPath>
</defs>
</svg>
