<svg width="19" height="19" viewBox="0 0 19 19" fill="none" xmlns="http://www.w3.org/2000/svg">
<g clip-path="url(#clip0_1697_3591)">
<path d="M19 9.5C19 4.25329 14.7467 0 9.5 0C4.25329 0 0 4.25329 0 9.5C0 14.2416 3.47399 18.1719 8.01562 18.8846V12.2461H5.60352V9.5H8.01562V7.40703C8.01562 5.02609 9.43395 3.71094 11.6039 3.71094C12.643 3.71094 13.7305 3.89648 13.7305 3.89648V6.23437H12.5326C11.3525 6.23437 10.9844 6.96673 10.9844 7.71875V9.5H13.6191L13.1979 12.2461H10.9844V18.8846C15.526 18.1719 19 14.2416 19 9.5Z" fill="#1877F2"/>
<path d="M13.1979 12.2461L13.6191 9.5H10.9844V7.71875C10.9844 6.96747 11.3525 6.23438 12.5326 6.23438H13.7305V3.89648C13.7305 3.89648 12.6434 3.71094 11.6039 3.71094C9.43395 3.71094 8.01562 5.02609 8.01562 7.40703V9.5H5.60352V12.2461H8.01562V18.8846C8.99923 19.0385 10.0008 19.0385 10.9844 18.8846V12.2461H13.1979Z" fill="white"/>
</g>
<defs>
<clipPath id="clip0_1697_3591">
<rect width="19" height="19" fill="white"/>
</clipPath>
</defs>
</svg>
