<svg width="19" height="19" viewBox="0 0 19 19" fill="none" xmlns="http://www.w3.org/2000/svg">
<g clip-path="url(#clip0_1697_3602)">
<path d="M9.5 19C14.7467 19 19 14.7467 19 9.5C19 4.25329 14.7467 0 9.5 0C4.25329 0 0 4.25329 0 9.5C0 14.7467 4.25329 19 9.5 19Z" fill="url(#paint0_linear_1697_3602)"/>
<path fill-rule="evenodd" clip-rule="evenodd" d="M4.30006 9.39946C7.0695 8.19286 8.91623 7.3974 9.84025 7.01307C12.4785 5.91573 13.0267 5.72511 13.384 5.71882C13.4626 5.71743 13.6383 5.73691 13.7521 5.82927C13.8483 5.90725 13.8747 6.0126 13.8874 6.08654C13.9 6.16048 13.9158 6.32891 13.9032 6.46052C13.7603 7.96269 13.1416 11.6081 12.8269 13.2905C12.6938 14.0024 12.4315 14.2411 12.1777 14.2645C11.626 14.3153 11.2071 13.8999 10.6728 13.5497C9.83663 13.0016 9.36428 12.6604 8.55267 12.1255C7.61473 11.5074 8.22276 11.1677 8.75729 10.6125C8.89718 10.4672 11.3279 8.25632 11.375 8.05575C11.3808 8.03067 11.3863 7.93717 11.3308 7.88779C11.2752 7.83842 11.1932 7.85531 11.1341 7.86873C11.0502 7.88777 9.71448 8.77063 7.1269 10.5173C6.74776 10.7777 6.40435 10.9045 6.09666 10.8979C5.75747 10.8905 5.10498 10.7061 4.61993 10.5484C4.02499 10.355 3.55215 10.2528 3.59332 9.92432C3.61477 9.75325 3.85035 9.5783 4.30006 9.39946Z" fill="white"/>
</g>
<defs>
<linearGradient id="paint0_linear_1697_3602" x1="9.5" y1="0" x2="9.5" y2="18.8591" gradientUnits="userSpaceOnUse">
<stop stop-color="#2AABEE"/>
<stop offset="1" stop-color="#229ED9"/>
</linearGradient>
<clipPath id="clip0_1697_3602">
<rect width="19" height="19" fill="white"/>
</clipPath>
</defs>
</svg>
