<svg width="18" height="18" viewBox="0 0 18 18" fill="none" xmlns="http://www.w3.org/2000/svg">
<path d="M5.66064 16.3134C12.4531 16.3134 16.1683 10.6859 16.1683 5.80576C16.1683 5.64592 16.1683 5.4868 16.1575 5.3284C16.8803 4.80561 17.5042 4.15831 18 3.4168C17.326 3.7156 16.611 3.91146 15.8789 3.99784C16.6499 3.53635 17.2269 2.81042 17.5025 1.9552C16.7776 2.3854 15.9845 2.68857 15.1574 2.8516C14.6006 2.25953 13.8642 1.86748 13.0621 1.73611C12.2601 1.60474 11.4371 1.74138 10.7205 2.12489C10.0039 2.50839 9.43367 3.11738 9.09806 3.85761C8.76245 4.59784 8.68016 5.42804 8.86392 6.21976C7.39567 6.1461 5.95932 5.76453 4.64809 5.0998C3.33686 4.43507 2.18007 3.50204 1.2528 2.36128C0.780546 3.17427 0.635904 4.1367 0.848325 5.05259C1.06075 5.96849 1.61426 6.76899 2.39616 7.29112C1.80842 7.27389 1.23349 7.11534 0.72 6.82888V6.87568C0.720233 7.72831 1.01539 8.55462 1.5554 9.21445C2.09542 9.87428 2.84705 10.327 3.6828 10.4958C3.13911 10.6441 2.56866 10.6658 2.01528 10.5592C2.25136 11.2929 2.71082 11.9346 3.32943 12.3944C3.94804 12.8542 4.69487 13.1093 5.46552 13.1238C4.69983 13.7257 3.82299 14.1707 2.88516 14.4333C1.94733 14.696 0.966911 14.7712 0 14.6546C1.68887 15.7383 3.65394 16.3132 5.66064 16.3106" fill="#1DA1F2"/>
</svg>
