<svg width="21" height="21" viewBox="0 0 21 21" fill="none" xmlns="http://www.w3.org/2000/svg">
<g clip-path="url(#clip0_1697_3588)">
<path d="M20.5819 5.41254C20.4632 4.96578 20.2292 4.55803 19.9034 4.23011C19.5775 3.90219 19.1713 3.6656 18.7253 3.54402C17.0835 3.10254 10.521 3.10254 10.521 3.10254C10.521 3.10254 3.9585 3.10254 2.31668 3.54402C1.87068 3.6656 1.46445 3.90219 1.13862 4.23011C0.812798 4.55803 0.578813 4.96578 0.460087 5.41254C0.0209961 7.06152 0.0209961 10.5003 0.0209961 10.5003C0.0209961 10.5003 0.0209961 13.939 0.460087 15.588C0.578813 16.0348 0.812798 16.4425 1.13862 16.7704C1.46445 17.0983 1.87068 17.3349 2.31668 17.4565C3.9585 17.898 10.521 17.898 10.521 17.898C10.521 17.898 17.0835 17.898 18.7253 17.4565C19.1713 17.3349 19.5775 17.0983 19.9034 16.7704C20.2292 16.4425 20.4632 16.0348 20.5819 15.588C21.021 13.939 21.021 10.5003 21.021 10.5003C21.021 10.5003 21.021 7.06152 20.5819 5.41254Z" fill="#FF0302"/>
<path d="M8.37305 13.623V7.37793L13.8617 10.5005L8.37305 13.623Z" fill="#FEFEFE"/>
</g>
<defs>
<clipPath id="clip0_1697_3588">
<rect width="21" height="21" fill="white"/>
</clipPath>
</defs>
</svg>
