<svg width="16" height="23" viewBox="0 0 16 23" fill="none" xmlns="http://www.w3.org/2000/svg">
<path d="M0.19274 7.8391C0.217198 8.65449 0.364349 9.46154 0.62924 10.2331C1.33655 12.1089 2.67829 13.678 4.42161 14.6678L5.41611 15.2663C6.21675 15.7438 7.13161 15.9959 8.0638 15.9959C8.996 15.9959 9.91085 15.7438 10.7115 15.2663L11.6115 14.7252C12.7707 14.0703 13.7619 13.1551 14.5069 12.0516C15.2519 10.9482 15.7304 9.6867 15.9045 8.36672C15.93 8.11322 15.9427 7.85747 15.9427 7.59947C15.9339 6.58366 15.7093 5.58132 15.2838 4.65889C14.8582 3.73646 14.2415 2.91501 13.4745 2.24897C11.9905 0.959591 10.091 0.249302 8.12511 0.248722C7.74171 0.240969 7.35824 0.260519 6.97762 0.307222V0.307222C5.10216 0.467596 3.3578 1.33492 2.09797 2.73345C0.83814 4.13198 0.157065 5.95713 0.19274 7.8391V7.8391ZM11.9827 3.93647C12.5143 4.38822 12.9423 4.94928 13.2374 5.58141C13.5325 6.21354 13.6878 6.90187 13.6927 7.59947C13.6927 7.7851 13.6837 7.97072 13.6669 8.1541C13.5575 8.96811 13.2847 9.75161 12.8648 10.4575C12.4449 11.1633 11.8865 11.777 11.2234 12.2615C11.9048 10.8707 12.2354 9.33421 12.1864 7.78622C12.1055 6.16271 11.6397 4.58171 10.8274 3.17372C11.2436 3.37919 11.6328 3.63538 11.9861 3.93647H11.9827ZM8.06774 3.06122C9.16956 4.43706 9.82328 6.1175 9.94086 7.87622C9.95893 9.79413 9.29509 11.6561 8.06774 13.13C6.87513 11.7236 6.22051 9.93955 6.22051 8.0956C6.22051 6.25165 6.87513 4.46758 8.06774 3.06122V3.06122ZM5.34074 3.11972C4.51 4.54139 4.03275 6.14175 3.94911 7.78622C3.90139 9.33616 4.23395 10.8742 4.91774 12.266C3.94158 11.5797 3.19196 10.6182 2.76449 9.5041C2.57113 8.94596 2.46267 8.36195 2.44274 7.7716C2.41941 6.79804 2.68091 5.83887 3.19514 5.01188C3.70936 4.18488 4.45392 3.52607 5.33737 3.11635L5.34074 3.11972ZM4.69274 18.2487H11.4427V21.6237C11.4427 21.9221 11.3242 22.2082 11.1132 22.4192C10.9023 22.6302 10.6161 22.7487 10.3177 22.7487H5.81774C5.51937 22.7487 5.23322 22.6302 5.02225 22.4192C4.81127 22.2082 4.69274 21.9221 4.69274 21.6237V18.2487Z" fill="#4F4E4E"/>
</svg>
