<svg width="21" height="21" viewBox="0 0 21 21" fill="none" xmlns="http://www.w3.org/2000/svg">
<path d="M1 10.025L3.11111 8.01944M3.11111 8.01944L10.5 1L17.8889 8.01944M3.11111 8.01944V18.0472C3.11111 18.3132 3.22232 18.5682 3.42028 18.7563C3.61823 18.9443 3.88672 19.05 4.16667 19.05H7.33333M17.8889 8.01944L20 10.025M17.8889 8.01944V18.0472C17.8889 18.3132 17.7777 18.5682 17.5797 18.7563C17.3818 18.9443 17.1133 19.05 16.8333 19.05H13.6667M7.33333 19.05C7.61328 19.05 7.88177 18.9443 8.07972 18.7563C8.27768 18.5682 8.38889 18.3132 8.38889 18.0472V14.0361C8.38889 13.7702 8.5001 13.5151 8.69805 13.327C8.89601 13.139 9.16449 13.0333 9.44444 13.0333H11.5556C11.8355 13.0333 12.104 13.139 12.3019 13.327C12.4999 13.5151 12.6111 13.7702 12.6111 14.0361V18.0472C12.6111 18.3132 12.7223 18.5682 12.9203 18.7563C13.1182 18.9443 13.3867 19.05 13.6667 19.05M7.33333 19.05H13.6667" stroke="#4F4E4E" stroke-width="2" stroke-linecap="round" stroke-linejoin="round"/>
</svg>
