<svg width="18" height="18" viewBox="0 0 18 18" fill="none" xmlns="http://www.w3.org/2000/svg">
<g clip-path="url(#clip0_101_168)">
<path d="M14.7975 12.4972C15.1687 12.0378 15.3723 11.4656 15.375 10.875C15.375 10.1788 15.0984 9.51113 14.6062 9.01884C14.1139 8.52656 13.4462 8.25 12.75 8.25C12.0538 8.25 11.3861 8.52656 10.8938 9.01884C10.4016 9.51113 10.125 10.1788 10.125 10.875C10.1277 11.4656 10.3313 12.0378 10.7025 12.4972C10.0145 12.8504 9.42844 13.3737 9 14.0175C8.57156 13.3737 7.98545 12.8504 7.2975 12.4972C7.66866 12.0378 7.87234 11.4656 7.875 10.875C7.875 10.1788 7.59844 9.51113 7.10616 9.01884C6.61387 8.52656 5.94619 8.25 5.25 8.25C4.55381 8.25 3.88613 8.52656 3.39384 9.01884C2.90156 9.51113 2.625 10.1788 2.625 10.875C2.62766 11.4656 2.83134 12.0378 3.2025 12.4972C2.46493 12.8741 1.84567 13.4472 1.41295 14.1535C0.980228 14.8597 0.750821 15.6717 0.75 16.5C0.75 16.6989 0.829018 16.8897 0.96967 17.0303C1.11032 17.171 1.30109 17.25 1.5 17.25H16.5C16.6989 17.25 16.8897 17.171 17.0303 17.0303C17.171 16.8897 17.25 16.6989 17.25 16.5C17.2492 15.6717 17.0198 14.8597 16.587 14.1535C16.1543 13.4472 15.5351 12.8741 14.7975 12.4972ZM5.25 9.75C5.4725 9.75 5.69001 9.81598 5.87502 9.9396C6.06002 10.0632 6.20422 10.2389 6.28936 10.4445C6.37451 10.65 6.39679 10.8762 6.35338 11.0945C6.30998 11.3127 6.20283 11.5132 6.0455 11.6705C5.88816 11.8278 5.68771 11.935 5.46948 11.9784C5.25125 12.0218 5.02505 11.9995 4.81948 11.9144C4.61391 11.8292 4.43821 11.685 4.3146 11.5C4.19098 11.315 4.125 11.0975 4.125 10.875C4.125 10.5766 4.24353 10.2905 4.4545 10.0795C4.66548 9.86853 4.95163 9.75 5.25 9.75ZM2.3445 15.75C2.51025 15.1054 2.88567 14.5341 3.41167 14.1263C3.93768 13.7184 4.58439 13.497 5.25 13.497C5.91561 13.497 6.56232 13.7184 7.08833 14.1263C7.61433 14.5341 7.98975 15.1054 8.1555 15.75H2.3445ZM12.75 9.75C12.9725 9.75 13.19 9.81598 13.375 9.9396C13.56 10.0632 13.7042 10.2389 13.7894 10.4445C13.8745 10.65 13.8968 10.8762 13.8534 11.0945C13.81 11.3127 13.7028 11.5132 13.5455 11.6705C13.3882 11.8278 13.1877 11.935 12.9695 11.9784C12.7512 12.0218 12.525 11.9995 12.3195 11.9144C12.1139 11.8292 11.9382 11.685 11.8146 11.5C11.691 11.315 11.625 11.0975 11.625 10.875C11.625 10.5766 11.7435 10.2905 11.9545 10.0795C12.1655 9.86853 12.4516 9.75 12.75 9.75ZM9.84525 15.75C10.0115 15.106 10.3871 14.5356 10.9129 14.1283C11.4387 13.721 12.0849 13.5 12.75 13.5C13.4151 13.5 14.0613 13.721 14.5871 14.1283C15.1129 14.5356 15.4885 15.106 15.6547 15.75H9.84525ZM5.4 6.3C5.28065 6.45913 5.22941 6.65915 5.25754 6.85607C5.28567 7.05298 5.39087 7.23065 5.55 7.35C5.70913 7.46935 5.90915 7.52059 6.10607 7.49246C6.30298 7.46433 6.48065 7.35913 6.6 7.2C6.87944 6.82741 7.24179 6.525 7.65836 6.31672C8.07493 6.10844 8.53426 6 9 6C9.46574 6 9.92507 6.10844 10.3416 6.31672C10.7582 6.525 11.1206 6.82741 11.4 7.2C11.4591 7.27879 11.5331 7.34518 11.6179 7.39536C11.7026 7.44554 11.7964 7.47853 11.8939 7.49246C11.9914 7.50639 12.0907 7.50098 12.1861 7.47654C12.2815 7.45209 12.3712 7.40909 12.45 7.35C12.5288 7.29091 12.5952 7.21687 12.6454 7.13212C12.6955 7.04737 12.7285 6.95357 12.7425 6.85607C12.7564 6.75856 12.751 6.65927 12.7265 6.56386C12.7021 6.46845 12.6591 6.37879 12.6 6.3C12.1898 5.75243 11.6601 5.3056 11.0512 4.9935C11.4204 4.53463 11.6227 3.96394 11.625 3.375C11.625 2.67881 11.3484 2.01113 10.8562 1.51884C10.3639 1.02656 9.69619 0.75 9 0.75C8.30381 0.75 7.63613 1.02656 7.14384 1.51884C6.65156 2.01113 6.375 2.67881 6.375 3.375C6.37744 3.96368 6.57974 4.53408 6.94875 4.99275C6.33973 5.30493 5.81001 5.75204 5.4 6.3ZM9 2.25C9.2225 2.25 9.44001 2.31598 9.62502 2.4396C9.81002 2.56321 9.95422 2.73891 10.0394 2.94448C10.1245 3.15005 10.1468 3.37625 10.1034 3.59448C10.06 3.81271 9.95283 4.01316 9.7955 4.1705C9.63816 4.32783 9.43771 4.43498 9.21948 4.47838C9.00125 4.52179 8.77505 4.49951 8.56948 4.41436C8.36391 4.32922 8.18821 4.18502 8.0646 4.00002C7.94098 3.81501 7.875 3.5975 7.875 3.375C7.875 3.07663 7.99353 2.79048 8.2045 2.5795C8.41548 2.36853 8.70163 2.25 9 2.25Z" fill="#4F4E4E"/>
</g>
<defs>
<clipPath id="clip0_101_168">
<rect width="18" height="18" fill="white"/>
</clipPath>
</defs>
</svg>
