<svg width="20" height="23" viewBox="0 0 20 23" fill="none" xmlns="http://www.w3.org/2000/svg">
<path d="M17.2727 9.0127H16.2909C16.0936 7.51975 15.463 6.13688 14.4933 5.07011C13.5235 4.00334 12.2663 3.30976 10.9091 3.0927V1.0127C10.9091 0.747479 10.8133 0.493125 10.6428 0.305588C10.4723 0.118052 10.2411 0.0126953 10 0.0126953C9.75889 0.0126953 9.52766 0.118052 9.35718 0.305588C9.18669 0.493125 9.09091 0.747479 9.09091 1.0127V3.0927C7.73369 3.30976 6.47654 4.00334 5.50674 5.07011C4.53695 6.13688 3.90642 7.51975 3.70909 9.0127H2.72727C2.00396 9.0127 1.31026 9.32877 0.7988 9.89137C0.287337 10.454 0 11.217 0 12.0127C0 12.8083 0.287337 13.5714 0.7988 14.134C1.31026 14.6966 2.00396 15.0127 2.72727 15.0127H4.98546L2.80364 20.6187C2.75459 20.7397 2.72791 20.8703 2.72514 21.0028C2.72237 21.1353 2.74356 21.267 2.78749 21.3904C2.83142 21.5138 2.89721 21.6264 2.98103 21.7216C3.06486 21.8168 3.16504 21.8927 3.27577 21.9449C3.3865 21.9971 3.50555 22.0246 3.62602 22.0258C3.74649 22.0269 3.86597 22.0017 3.97751 21.9516C4.08905 21.9016 4.19043 21.8276 4.27576 21.7341C4.36108 21.6405 4.42866 21.5292 4.47455 21.4067L6.96273 15.0127H9.09091V19.0127C9.09091 19.2779 9.18669 19.5323 9.35718 19.7198C9.52766 19.9073 9.75889 20.0127 10 20.0127C10.2411 20.0127 10.4723 19.9073 10.6428 19.7198C10.8133 19.5323 10.9091 19.2779 10.9091 19.0127V15.0127H13.0373L15.5282 21.4067C15.6254 21.6467 15.8046 21.8349 16.027 21.9307C16.2495 22.0266 16.4972 22.0222 16.7168 21.9187C16.9363 21.8152 17.11 21.6207 17.2002 21.3775C17.2905 21.1342 17.2901 20.8616 17.1991 20.6187L15.0145 15.0127H17.2727C17.996 15.0127 18.6897 14.6966 19.2012 14.134C19.7127 13.5714 20 12.8083 20 12.0127C20 11.217 19.7127 10.454 19.2012 9.89137C18.6897 9.32877 17.996 9.0127 17.2727 9.0127ZM10 5.0127C11.0475 5.01396 12.0626 5.41253 12.874 6.14119C13.6855 6.86985 14.2437 7.88402 14.4545 9.0127H5.54545C5.75629 7.88402 6.31451 6.86985 7.12597 6.14119C7.93743 5.41253 8.9525 5.01396 10 5.0127ZM17.2727 13.0127H2.72727C2.48617 13.0127 2.25494 12.9073 2.08445 12.7198C1.91396 12.5323 1.81818 12.2779 1.81818 12.0127C1.81818 11.7475 1.91396 11.4931 2.08445 11.3056C2.25494 11.1181 2.48617 11.0127 2.72727 11.0127H17.2727C17.5138 11.0127 17.7451 11.1181 17.9156 11.3056C18.086 11.4931 18.1818 11.7475 18.1818 12.0127C18.1818 12.2779 18.086 12.5323 17.9156 12.7198C17.7451 12.9073 17.5138 13.0127 17.2727 13.0127Z" fill="#4F4E4E"/>
</svg>
