<svg width="18" height="22" viewBox="0 0 18 22" fill="none" xmlns="http://www.w3.org/2000/svg">
<path d="M16.3333 3.6665C13.0251 3.6665 9.58392 1.1255 9.55 1.09984C9.39133 0.980834 9.19834 0.916504 9 0.916504C8.80166 0.916504 8.60867 0.980834 8.45 1.09984C8.41608 1.1255 4.97492 3.6665 1.66667 3.6665C1.42355 3.6665 1.19039 3.76308 1.01849 3.93499C0.846577 4.1069 0.75 4.34006 0.75 4.58317C0.75 5.13317 0.841667 18.0848 8.67825 21.0254C8.88529 21.102 9.11288 21.102 9.31992 21.0254C17.1583 18.0848 17.25 5.13317 17.25 4.58317C17.25 4.34006 17.1534 4.1069 16.9815 3.93499C16.8096 3.76308 16.5764 3.6665 16.3333 3.6665V3.6665ZM9 19.1783C3.68333 16.8665 2.77125 8.22509 2.61542 5.44759C4.90306 5.09963 7.08424 4.24563 9 2.94784C10.9158 4.24563 13.0969 5.09963 15.3846 5.44759C15.2333 8.22509 14.3167 16.8665 9 19.1783ZM5.33333 10.0832C5.33333 10.8084 5.54838 11.5173 5.95128 12.1203C6.35418 12.7232 6.92683 13.1932 7.59683 13.4707C8.26682 13.7483 9.00407 13.8209 9.71533 13.6794C10.4266 13.5379 11.0799 13.1887 11.5927 12.6759C12.1055 12.1631 12.4547 11.5098 12.5962 10.7985C12.7377 10.0872 12.6651 9.34999 12.3876 8.68C12.11 8.01 11.6401 7.43735 11.0371 7.03445C10.4341 6.63155 9.7252 6.4165 9 6.4165C8.02754 6.4165 7.09491 6.80281 6.40728 7.49045C5.71964 8.17808 5.33333 9.11071 5.33333 10.0832V10.0832ZM10.8333 10.0832C10.8333 10.4458 10.7258 10.8002 10.5244 11.1017C10.3229 11.4032 10.0366 11.6382 9.70159 11.777C9.36659 11.9157 8.99797 11.952 8.64233 11.8813C8.2867 11.8105 7.96003 11.6359 7.70364 11.3795C7.44724 11.1231 7.27263 10.7965 7.20189 10.4408C7.13115 10.0852 7.16746 9.71658 7.30622 9.38158C7.44498 9.04659 7.67996 8.76026 7.98145 8.55881C8.28295 8.35736 8.6374 8.24984 9 8.24984C9.48623 8.24984 9.95255 8.44299 10.2964 8.78681C10.6402 9.13063 10.8333 9.59694 10.8333 10.0832Z" fill="#4F4E4E"/>
</svg>
